<svg id="Layer_1" data-name="Layer 1" xmlns="http://www.w3.org/2000/svg" viewBox="0 0 200 200"><defs><style>.cls-1{fill:#27348b;}</style></defs><title>basketball</title><path class="cls-1" d="M100,0a87.28,87.28,0,1,0,87.27,87.27A87.37,87.37,0,0,0,100,0Zm0,166.6a79.33,79.33,0,1,1,79.33-79.33A79.42,79.42,0,0,1,100,166.6Z"/><path class="cls-1" d="M44.57,190.26v0a3.42,3.42,0,0,0,2-1.42,4.55,4.55,0,0,0,.68-2.51,5.55,5.55,0,0,0-.38-2.17,3.55,3.55,0,0,0-1.06-1.41,4.16,4.16,0,0,0-1.63-.76,8.81,8.81,0,0,0-2-.23H36.1v18h6.13a7.13,7.13,0,0,0,2.66-.43,4.71,4.71,0,0,0,1.74-1.14,4.11,4.11,0,0,0,.94-1.68,7,7,0,0,0,.28-2,4.44,4.44,0,0,0-.88-2.9A3.62,3.62,0,0,0,44.57,190.26Zm-4.84-5.87H41a3,3,0,0,1,2,.53,2.24,2.24,0,0,1,.63,1.81,2.19,2.19,0,0,1-.69,1.83,3.61,3.61,0,0,1-2.21.54h-1Zm3.53,12.08a3.52,3.52,0,0,1-2.12.58H39.73v-5.42h1.56a4.72,4.72,0,0,1,1.11.12,2.11,2.11,0,0,1,.87.44,2.07,2.07,0,0,1,.58.84,3.21,3.21,0,0,1,.22,1.29A2.48,2.48,0,0,1,43.26,196.47Z"/><path class="cls-1" d="M53.63,181.71l-4.77,18h3.78l.84-3.81h4.79l.83,3.81h3.79l-4.77-18Zm.48,11.23,1.74-8.1h0l1.74,8.1Z"/><path class="cls-1" d="M74.73,191.79a4.57,4.57,0,0,0-1-1.06,8.41,8.41,0,0,0-1.69-.94l-2.8-1.22a3.07,3.07,0,0,1-1.51-1,2.58,2.58,0,0,1-.36-1.4,3.33,3.33,0,0,1,.09-.78,1.56,1.56,0,0,1,.33-.67,1.64,1.64,0,0,1,.64-.47,2.5,2.5,0,0,1,1-.18,1.7,1.7,0,0,1,1.52.7,3.63,3.63,0,0,1,.45,2h3.48v-.51a5.27,5.27,0,0,0-.42-2.2,3.91,3.91,0,0,0-1.16-1.52,4.58,4.58,0,0,0-1.76-.85,8.74,8.74,0,0,0-2.23-.27,6,6,0,0,0-4.09,1.31,5.07,5.07,0,0,0-1.49,4,6.08,6.08,0,0,0,.28,2,3.86,3.86,0,0,0,.87,1.49,5.65,5.65,0,0,0,1.47,1.12,13.13,13.13,0,0,0,2.1.89,12.82,12.82,0,0,1,1.52.59,3.75,3.75,0,0,1,1,.64,2.1,2.1,0,0,1,.54.8,2.94,2.94,0,0,1,.17,1,2,2,0,0,1-.67,1.68,2.34,2.34,0,0,1-1.5.54,2.94,2.94,0,0,1-1.18-.2,1.82,1.82,0,0,1-.74-.56,2.05,2.05,0,0,1-.38-.86,5.86,5.86,0,0,1-.1-1.15v-.53H63.44v.73a5.22,5.22,0,0,0,1.32,3.83c.89.89,2.35,1.34,4.4,1.34a7.27,7.27,0,0,0,4.61-1.3,5,5,0,0,0,1.65-4.15,7,7,0,0,0-.15-1.51A3.57,3.57,0,0,0,74.73,191.79Z"/><polygon class="cls-1" points="89.44 181.71 85.51 181.71 80.92 188.93 80.87 188.93 80.87 181.71 77.24 181.71 77.24 199.72 80.87 199.72 80.87 194.38 82.21 192.33 85.91 199.72 90 199.72 84.55 189.43 89.44 181.71"/><polygon class="cls-1" points="94.41 191.9 100.47 191.9 100.47 188.93 94.41 188.93 94.41 184.69 100.84 184.69 100.84 181.71 90.78 181.71 90.78 199.72 101.1 199.72 101.1 196.75 94.41 196.75 94.41 191.9"/><polygon class="cls-1" points="101.95 184.69 105.89 184.69 105.89 199.72 109.52 199.72 109.52 184.69 113.45 184.69 113.45 181.71 101.95 181.71 101.95 184.69"/><path class="cls-1" d="M123.49,190.26v0a3.42,3.42,0,0,0,2.05-1.42,4.55,4.55,0,0,0,.68-2.51,5.55,5.55,0,0,0-.38-2.17,3.46,3.46,0,0,0-1.06-1.41,4.09,4.09,0,0,0-1.63-.76,8.81,8.81,0,0,0-2.05-.23H115v18h6.13a7.09,7.09,0,0,0,2.66-.43,4.71,4.71,0,0,0,1.74-1.14,4.13,4.13,0,0,0,1-1.68,7.41,7.41,0,0,0,.27-2,4.44,4.44,0,0,0-.88-2.9A3.62,3.62,0,0,0,123.49,190.26Zm-4.84-5.87H120a3,3,0,0,1,2,.53,2.24,2.24,0,0,1,.63,1.81,2.19,2.19,0,0,1-.7,1.83,3.59,3.59,0,0,1-2.2.54h-1Zm3.53,12.08a3.52,3.52,0,0,1-2.12.58h-1.41v-5.42h1.56a4.87,4.87,0,0,1,1.12.12,2.24,2.24,0,0,1,.87.44,2.29,2.29,0,0,1,.58.84,3.41,3.41,0,0,1,.21,1.29A2.48,2.48,0,0,1,122.18,196.47Z"/><path class="cls-1" d="M132.55,181.71l-4.77,18h3.79l.83-3.81h4.79l.83,3.81h3.79l-4.77-18Zm.48,11.23,1.74-8.1h0l1.74,8.1Z"/><polygon class="cls-1" points="146.7 181.71 143.07 181.71 143.07 199.72 153.13 199.72 153.13 196.75 146.7 196.75 146.7 181.71"/><polygon class="cls-1" points="158.38 181.71 154.74 181.71 154.74 199.72 164.81 199.72 164.81 196.75 158.38 196.75 158.38 181.71"/><path class="cls-1" d="M56.72,46.24A59.17,59.17,0,0,0,40.57,85.51H98.51v-14c-13.33-.51-21-7.8-28.43-14.88C65.81,52.61,61.73,48.75,56.72,46.24Z"/><path class="cls-1" d="M56.72,127.77c5-2.52,9.09-6.38,13.36-10.44,7.42-7.08,15.1-14.36,28.43-14.88v-14H40.57A59.2,59.2,0,0,0,56.72,127.77Z"/><path class="cls-1" d="M129.92,56.67c-7.42,7.08-15.1,14.37-28.43,14.88v14h57.94a59.17,59.17,0,0,0-16.15-39.27C138.27,48.75,134.19,52.61,129.92,56.67Z"/><path class="cls-1" d="M141.08,44a59.22,59.22,0,0,0-39.59-16.45v41c12.13-.51,19.07-7.09,26.38-14.06C131.9,50.68,136,46.75,141.08,44Z"/><path class="cls-1" d="M101.49,102.45c13.33.52,21,7.8,28.43,14.88,4.27,4.06,8.35,7.92,13.36,10.44a59.2,59.2,0,0,0,16.15-39.28H101.49Z"/><path class="cls-1" d="M101.49,105.43v41A59.31,59.31,0,0,0,141.08,130c-5.05-2.74-9.18-6.67-13.21-10.51C120.56,112.51,113.62,105.93,101.49,105.43Z"/><path class="cls-1" d="M72.13,54.52c7.31,7,14.25,13.55,26.38,14.06v-41A59.2,59.2,0,0,0,58.92,44C64,46.75,68.1,50.68,72.13,54.52Z"/><path class="cls-1" d="M58.92,130a59.31,59.31,0,0,0,39.59,16.45v-41c-12.13.5-19.07,7.08-26.38,14C68.1,123.32,64,127.25,58.92,130Z"/></svg>