<svg id="Layer_1" data-name="Layer 1" xmlns="http://www.w3.org/2000/svg" viewBox="0 0 200 200"><defs><style>.cls-1{fill:#3d3e3e;}.cls-2{fill:#95c11f;}</style></defs><title>cycling</title><path class="cls-1" d="M100,173a86.5,86.5,0,1,1,86.49-86.5A86.59,86.59,0,0,1,100,173ZM100,7.87a78.62,78.62,0,1,0,78.62,78.62A78.71,78.71,0,0,0,100,7.87Z"/><path class="cls-2" d="M65.35,185.06a2,2,0,0,0-2.8-.52,2.34,2.34,0,0,0-.68,1.17,9.51,9.51,0,0,0-.35,2.13c-.07.87-.1,1.94-.1,3.21a32.2,32.2,0,0,0,.13,3.28,7.65,7.65,0,0,0,.43,1.93,1.75,1.75,0,0,0,.73.93,2,2,0,0,0,1,.23,2.33,2.33,0,0,0,.88-.16,1.48,1.48,0,0,0,.72-.65,4.25,4.25,0,0,0,.47-1.37A12.2,12.2,0,0,0,66,192.9h3.6a16.11,16.11,0,0,1-.23,2.75,6.27,6.27,0,0,1-.84,2.28,4.12,4.12,0,0,1-1.72,1.52,6.47,6.47,0,0,1-2.89.55,6.81,6.81,0,0,1-3.22-.65,4.39,4.39,0,0,1-1.84-1.88,8.21,8.21,0,0,1-.83-2.92,39,39,0,0,1,0-7.49,8.21,8.21,0,0,1,.83-2.93,4.66,4.66,0,0,1,1.84-1.92,6.56,6.56,0,0,1,3.22-.68,6.29,6.29,0,0,1,3,.62,4.32,4.32,0,0,1,1.66,1.59,5.39,5.39,0,0,1,.69,2.07,17.59,17.59,0,0,1,.14,2.09h-3.6A6.47,6.47,0,0,0,65.35,185.06Z"/><path class="cls-2" d="M76.84,188.78h0l2.5-6.9h3.9L78.66,192.7v7h-3.6v-7l-4.62-10.82h4Z"/><path class="cls-2" d="M91.78,185.06a1.73,1.73,0,0,0-1.69-.88,1.68,1.68,0,0,0-1.11.36,2.28,2.28,0,0,0-.69,1.17,10.12,10.12,0,0,0-.35,2.13c-.07.87-.1,1.94-.1,3.21a31.77,31.77,0,0,0,.14,3.28,7.28,7.28,0,0,0,.42,1.93,1.75,1.75,0,0,0,.73.93,2.06,2.06,0,0,0,1,.23,2.38,2.38,0,0,0,.89-.16,1.51,1.51,0,0,0,.71-.65,4,4,0,0,0,.47-1.37,12.2,12.2,0,0,0,.18-2.34H96a16.11,16.11,0,0,1-.23,2.75,6.45,6.45,0,0,1-.83,2.28,4.21,4.21,0,0,1-1.73,1.52,6.47,6.47,0,0,1-2.89.55,6.81,6.81,0,0,1-3.22-.65,4.39,4.39,0,0,1-1.84-1.88,8.21,8.21,0,0,1-.82-2.92,37,37,0,0,1,0-7.49,8.21,8.21,0,0,1,.82-2.93,4.66,4.66,0,0,1,1.84-1.92,6.56,6.56,0,0,1,3.22-.68,6.29,6.29,0,0,1,3,.62A4.25,4.25,0,0,1,95,183.74a5.39,5.39,0,0,1,.69,2.07,17.59,17.59,0,0,1,.14,2.09h-3.6A6.65,6.65,0,0,0,91.78,185.06Z"/><path class="cls-2" d="M98,181.88h3.6v14.89H108v2.95H98Z"/><path class="cls-2" d="M109.79,181.88h3.6v17.84h-3.6Z"/><path class="cls-2" d="M124.56,194.1h0V181.88h3.3v17.84h-4.1l-4.4-12.49h0v12.49h-3.3V181.88h4.15Z"/><path class="cls-2" d="M138.22,186.15a3.35,3.35,0,0,0-.36-1,2.5,2.5,0,0,0-.64-.73,1.54,1.54,0,0,0-.94-.28,2,2,0,0,0-1.87,1.45,14.26,14.26,0,0,0-.58,4.8c0,1.06,0,2,.1,2.9a11.14,11.14,0,0,0,.37,2.21,3.11,3.11,0,0,0,.75,1.4,1.77,1.77,0,0,0,2,.31,2.38,2.38,0,0,0,.73-.53,2.83,2.83,0,0,0,.56-.88,3.26,3.26,0,0,0,.22-1.26v-1.83h-2.37V190.1H142v9.62h-2.65v-1.64h-.05a3.79,3.79,0,0,1-1.56,1.48,5.06,5.06,0,0,1-2.19.44,5.4,5.4,0,0,1-2.68-.58,3.86,3.86,0,0,1-1.63-1.77,9.3,9.3,0,0,1-.79-3,37.65,37.65,0,0,1-.2-4.09,24.07,24.07,0,0,1,.29-3.95,7.85,7.85,0,0,1,1-2.84,4.61,4.61,0,0,1,1.85-1.71,6.44,6.44,0,0,1,2.87-.57c2,0,3.39.48,4.25,1.46a6.08,6.08,0,0,1,1.3,4.19h-3.45A5.23,5.23,0,0,0,138.22,186.15Z"/><path class="cls-2" d="M64.3,75.93a26.88,26.88,0,1,0,26.88,26.88A26.9,26.9,0,0,0,64.3,75.93Zm.82,46.78a21.13,21.13,0,1,1,21.13-21.13A21.16,21.16,0,0,1,65.12,122.71Z"/><path class="cls-2" d="M135.7,75.93a26.88,26.88,0,1,0,26.87,26.88A26.91,26.91,0,0,0,135.7,75.93Zm.82,46.78a21.13,21.13,0,1,1,21.13-21.13A21.16,21.16,0,0,1,136.52,122.71Z"/><path class="cls-2" d="M109.13,70.89c1.15,1.6,2.8,2.37,6.34,2.52A49,49,0,0,0,132.52,71c2.92-1.1,3.52-2.15-.48-2.21-5.38-.08-9.73-.22-13.07-1s-3.77-2.72-4.32-7.69c-.94-8.54-1.39-15.46-5.6-17.28-3.58-1.55-7.32-.25-21.48,6.6-11.78,5.7-16.84,7.61-15.06,15,1.09,4.54,6.34,6.73,12,9.65,3,1.55,6.4,2.93,9.39,4.8a6.54,6.54,0,0,1,2.54,3.2c2.2,7.49-1.39,27.39-1.19,28,.32,1,1.29.18,2.3-1.91,4-8.33,7-20.09,7.47-25.62.47-6.06-.56-8.6-6.08-12-5.75-3.59-9.57-5.87-9.57-5.87A88,88,0,0,1,105.5,58C106.36,62.59,107.26,68.28,109.13,70.89Z"/><path class="cls-2" d="M121.06,49.37c4.57,1,8.25-3.21,8.95-8.56.82-6.21-2.09-10.63-6.69-11.44s-9,2.84-9.78,8.18S116.48,48.41,121.06,49.37Z"/></svg>