<svg id="Layer_1" data-name="Layer 1" xmlns="http://www.w3.org/2000/svg" viewBox="0 0 200 200"><defs><style>.cls-1{fill:#e30613;}</style></defs><title>extreme</title><polygon class="cls-1" points="57.87 192.24 63.88 192.24 63.88 189.29 57.87 189.29 57.87 185.09 64.25 185.09 64.25 182.14 54.27 182.14 54.27 200 64.5 200 64.5 197.05 57.87 197.05 57.87 192.24"/><polygon class="cls-1" points="78.03 182.14 74.11 182.14 71.83 187.92 69.53 182.14 65.55 182.14 69.65 190.97 65.2 200 69.15 200 71.7 193.94 74.28 200 78.33 200 73.88 190.97 78.03 182.14"/><polygon class="cls-1" points="78.78 185.09 82.69 185.09 82.69 200 86.29 200 86.29 185.09 90.19 185.09 90.19 182.14 78.78 182.14 78.78 185.09"/><path class="cls-1" d="M103.2,198.82a21.72,21.72,0,0,1-.15-2.17c0-.49,0-.92,0-1.32s0-.75-.07-1.08a3.68,3.68,0,0,0-.78-2.18,3.33,3.33,0,0,0-2-.88v-.05a3.35,3.35,0,0,0,2.26-1.46,5.43,5.43,0,0,0,.72-2.94,4.45,4.45,0,0,0-1.25-3.46,5,5,0,0,0-3.5-1.14H91.74V200h3.61v-7.56h1.92a1.92,1.92,0,0,1,1.6.6,2.9,2.9,0,0,1,.53,1.66l.1,3.42c0,.35,0,.69.1,1a1.87,1.87,0,0,0,.35.86h3.9v-.15A1.41,1.41,0,0,1,103.2,198.82Zm-4.35-9.49a3,3,0,0,1-2,.61h-1.5v-5.15h1.7a2.2,2.2,0,0,1,2.5,2.48A2.62,2.62,0,0,1,98.85,189.33Z"/><polygon class="cls-1" points="109.26 192.24 115.26 192.24 115.26 189.29 109.26 189.29 109.26 185.09 115.64 185.09 115.64 182.14 105.65 182.14 105.65 200 115.89 200 115.89 197.05 109.26 197.05 109.26 192.24"/><polygon class="cls-1" points="125.72 194.75 125.67 194.75 123.11 182.14 117.76 182.14 117.76 200 121.06 200 121.06 185.74 121.11 185.74 124.29 200 127.09 200 130.27 185.74 130.32 185.74 130.32 200 133.62 200 133.62 182.14 128.29 182.14 125.72 194.75"/><polygon class="cls-1" points="139.8 192.24 145.81 192.24 145.81 189.29 139.8 189.29 139.8 185.09 146.18 185.09 146.18 182.14 136.2 182.14 136.2 200 146.43 200 146.43 197.05 139.8 197.05 139.8 192.24"/><path class="cls-1" d="M100,0a86.57,86.57,0,1,0,86.57,86.57A86.67,86.67,0,0,0,100,0ZM91.32,74.19a3.6,3.6,0,0,1,.9-.75c2.12-1.19,1.12-2,2-2.92s5.57-4.68,5.57-4.68A18.4,18.4,0,0,0,101.42,64c-.84,3.45,3.64,2.81,3.64,2.81,2.33-1.53,1.65.79,1.65.79-2.77,1.17-6.86,3.46-13.22,13.58-.39.63-.76,1.25-1.11,1.85l-2.45-2.84S95.59,76.52,91.32,74.19ZM101,90.87a8.62,8.62,0,0,0-.39,1.72L99,90.68a9.06,9.06,0,0,0,1.13-1.47C103.33,86.58,101,90.87,101,90.87ZM96.58,92.5l4.26,4.63c1.26,6.43,5.67,13.26,5.67,13.26,1,1.45,1.73,2.72,2.34,3.86L97.18,126.34,96,114.9c.2-3.74,1.07-6.81,1.36-11.68A42.61,42.61,0,0,0,96.58,92.5ZM110,116.69a11.71,11.71,0,0,1,1,3.77,23.25,23.25,0,0,0-7.86,9.78,43.85,43.85,0,0,0-4.56-1.32Zm-4.2,19.84a4.86,4.86,0,0,0,3.84-.44,88.57,88.57,0,0,1,9.17,3.87,6.46,6.46,0,1,0,7.84-7.55,7,7,0,0,0-1.92-.17l-3.54-11.55a19.08,19.08,0,1,1-15.39,15.84Zm10-18.71a2.6,2.6,0,0,1-.13-1,23.38,23.38,0,0,0-.57-5.57l.38-.42,1.69,6.51C116.75,117.46,116.29,117.64,115.84,117.82Zm2.46,3.66,1,3.76-.44-.24c-1.15-.67-1.33.08-2.31-2.39a2.19,2.19,0,0,1-.11-.34A18.22,18.22,0,0,1,118.3,121.48Zm-2.11,11.26c1.88-.38,3.37-1,4.4-2.44l.82,3.15a6.44,6.44,0,0,0-2.51,3.73c0,.09,0,.18-.05.27-1.43-.81-3.78-2.09-6.59-3.44C112.85,132.87,113.94,133.21,116.19,132.74Zm9.34,2-.39-1.3a4.63,4.63,0,0,1,1.27.14,5.27,5.27,0,1,1-5.52,8.17c2.15,1.72,5.7,3.64,7.2-.77A4.59,4.59,0,0,0,125.53,134.73Zm-1.71,1.68-.55-2.63c.22-.08.44-.15.67-.21l.77,2.4Zm-.8-3.8-1.16-5.56,1.72,5.38C123.39,132.48,123.21,132.54,123,132.61Zm-.8,3.94s-1.94,1-1.87,1.78l-.4-.24a4.58,4.58,0,0,1,.1-.63,5.26,5.26,0,0,1,1.69-2.76ZM145,151.05a23.38,23.38,0,0,0-25-34.49l-1-3.26-1.07-5.06,10.93-11.73s8.75,2.23,10.35,1l.23-2s-7.47-3.24-8.84-4.61c0,0-7.35-6.48-8.86-3.44,0,0-1,.81,2.27,2,0,0,4.31,2.22,3.53,4.91l-.7,1.27-12.38,12.83a58.05,58.05,0,0,0-4.49-10.73c-2-3-.22-4-.22-4,4.13-4.11,10-16.45,10-16.45,7.65-7.33,3.93-12,3.51-14.08s1.15-2.61-2.32-4-.91-1.66-3.1-5.07-1.26-2.92-4.88-6.93S111,40.64,104.16,35.2,91.44,32,91.44,32c-5.54-1.46-2.9-5.93-2.9-5.93,2.73-2.62,1.1-4.58,1.1-4.58-.37-7.16-10.68-4-10.68-4C70.48,19,67.84,27.79,67.84,27.79,66.64,30.64,73,29.16,73,29.16c-1,1.06.71,2.53.71,2.53-2.29,3.51,1.16,2.76,1.16,2.76.58-.25,1.43,1.13,1.43,1.13-.45.81,1.07,1.57,1.07,1.57-.58.78,1.83,1.62,1.83,1.62,1.62,1.43,3.12-.43,3.12-.43,1.41-.45.25,1.11,3.28,1.57A2.11,2.11,0,0,1,86,40c2.49.82.76,5.55.76,5.55,0,5.1,6.89,11.61,7.8,12.74s.34,3-1.13,4.71-1.88.72-4.34,1.18-.42,1.21-3.67,3.83-2.1,3.81-2.1,3.81a6.46,6.46,0,0,0-1.58,2.77c-.38,4.88,3.18-.68,3.18-.68a3.07,3.07,0,0,0,3.66,2.16c.12.48-.06,1.14-.88,2l-8,8.17a1.72,1.72,0,0,0-2.5,0L72.8,90.51s-.14-2.13-2.5,0l-1.06,1.2a25.3,25.3,0,1,0,3.49,3.59l5.9-5.67s1.77.82,3.84-2.35c0,0,1.61-2.36,2.28.29l3.14,8.91a19.91,19.91,0,0,0,.13,3.65c.3,2.56,2.42,11.71,1.94,16.44s-6.43,2.78-6.43,2.78c-8.18-.79-.07,5.74-.07,5.74,6.66,1.73,9,4.64,10.6,4.38l.1,0c.82,1.34,2.35,3,4.77,2.63l3.22,1.16c-.07.23-.13.47-.19.7a23.39,23.39,0,0,0,17.27,28.21c.47.11.94.2,1.41.28A78.84,78.84,0,1,1,145,151.05ZM63.49,95A8.46,8.46,0,0,1,65,97.52L58.13,105a7,7,0,1,0,0,10.39c-.3,1.71,1.06,1,1.06,1l3.26-7c1.08-2.72-1-1.47-1-1.47a2.6,2.6,0,0,1-1.14,1.23,6.57,6.57,0,0,0-.45-1.63l9.41-9a20.48,20.48,0,1,1-2.56-2.79,1.22,1.22,0,0,1-.49.49S63.23,93.84,63.49,95Zm-9,18.51a5.72,5.72,0,0,0,2.9-3.36l1.58-1.52a5.63,5.63,0,0,1,.1,3,5.69,5.69,0,1,1-4.2-6.86A5.62,5.62,0,0,1,57.26,106l-2.08,2.28s-4-1.22-4.55,1.53C50.63,109.79,52.06,114.72,54.46,113.46Z"/></svg>