<svg id="Layer_1" data-name="Layer 1" xmlns="http://www.w3.org/2000/svg" viewBox="0 0 200 200"><defs><style>.cls-1{fill:#36a9e1;}</style></defs><title>fitness</title><path class="cls-1" d="M100,0a86.45,86.45,0,1,0,86.45,86.45A86.55,86.55,0,0,0,100,0Zm0,165a78.58,78.58,0,1,1,78.58-78.58A78.67,78.67,0,0,1,100,165Z"/><rect class="cls-1" x="30.59" y="76.84" width="4.17" height="19.23"/><rect class="cls-1" x="37.08" y="64.1" width="11.35" height="44.7"/><rect class="cls-1" x="165.4" y="76.84" width="4.17" height="19.23"/><rect class="cls-1" x="151.74" y="64.1" width="11.35" height="44.7"/><polygon class="cls-1" points="136.45 80.54 63.72 80.54 63.72 54.48 50.75 54.48 50.75 118.41 63.72 118.41 63.72 92.36 136.45 92.36 136.45 118.41 149.42 118.41 149.42 54.48 136.45 54.48 136.45 80.54"/><polygon class="cls-1" points="60.1 199.72 63.7 199.72 63.7 191.98 69.7 191.98 69.7 189.03 63.7 189.03 63.7 184.83 70.07 184.83 70.07 181.89 60.1 181.89 60.1 199.72"/><rect class="cls-1" x="71.84" y="181.89" width="3.6" height="17.84"/><polygon class="cls-1" points="77.17 184.83 81.06 184.83 81.06 199.72 84.66 199.72 84.66 184.83 88.56 184.83 88.56 181.89 77.17 181.89 77.17 184.83"/><polygon class="cls-1" points="98.65 194.1 98.6 194.1 94.25 181.89 90.11 181.89 90.11 199.72 93.41 199.72 93.41 187.23 93.46 187.23 97.85 199.72 101.95 199.72 101.95 181.89 98.65 181.89 98.65 194.1"/><polygon class="cls-1" points="108.05 191.98 114.04 191.98 114.04 189.03 108.05 189.03 108.05 184.83 114.42 184.83 114.42 181.89 104.45 181.89 104.45 199.72 114.67 199.72 114.67 196.78 108.05 196.78 108.05 191.98"/><path class="cls-1" d="M127,191.87a4.49,4.49,0,0,0-1-1.05,8.2,8.2,0,0,0-1.67-.94l-2.78-1.2a3.13,3.13,0,0,1-1.5-1,2.57,2.57,0,0,1-.35-1.38,3.33,3.33,0,0,1,.09-.78,1.58,1.58,0,0,1,.33-.66,1.69,1.69,0,0,1,.63-.46,2.45,2.45,0,0,1,1-.18,1.65,1.65,0,0,1,1.5.69,3.58,3.58,0,0,1,.45,2h3.45v-.5a5.33,5.33,0,0,0-.41-2.18,4,4,0,0,0-1.15-1.5,4.61,4.61,0,0,0-1.75-.85,8.59,8.59,0,0,0-2.21-.26,5.88,5.88,0,0,0-4.05,1.3,5,5,0,0,0-1.47,3.94,6.31,6.31,0,0,0,.27,1.94,3.88,3.88,0,0,0,.86,1.47,5.36,5.36,0,0,0,1.46,1.11,13.28,13.28,0,0,0,2.08.88,14.55,14.55,0,0,1,1.51.59,3.84,3.84,0,0,1,1,.63,2.12,2.12,0,0,1,.53.79,2.94,2.94,0,0,1,.17,1,2,2,0,0,1-.67,1.66,2.27,2.27,0,0,1-1.48.54,3,3,0,0,1-1.16-.2,1.92,1.92,0,0,1-.74-.55,2,2,0,0,1-.38-.87,6.51,6.51,0,0,1-.1-1.13v-.53h-3.59v.73a5.16,5.16,0,0,0,1.31,3.8c.87.88,2.32,1.32,4.36,1.32a7.19,7.19,0,0,0,4.56-1.29,4.89,4.89,0,0,0,1.63-4.11,6.93,6.93,0,0,0-.15-1.5A3.56,3.56,0,0,0,127,191.87Z"/><path class="cls-1" d="M139.91,191.87a4.25,4.25,0,0,0-1-1.05,8.59,8.59,0,0,0-1.68-.94l-2.77-1.2a3,3,0,0,1-1.5-1,2.57,2.57,0,0,1-.35-1.38,3.33,3.33,0,0,1,.09-.78,1.57,1.57,0,0,1,.32-.66,1.73,1.73,0,0,1,.64-.46,2.45,2.45,0,0,1,1-.18,1.65,1.65,0,0,1,1.5.69,3.58,3.58,0,0,1,.45,2H140v-.5a5.17,5.17,0,0,0-.42-2.18,3.92,3.92,0,0,0-1.15-1.5,4.57,4.57,0,0,0-1.74-.85,8.67,8.67,0,0,0-2.22-.26,5.87,5.87,0,0,0-4,1.3,5,5,0,0,0-1.48,3.94,6,6,0,0,0,.28,1.94,3.88,3.88,0,0,0,.86,1.47,5.36,5.36,0,0,0,1.46,1.11,12.75,12.75,0,0,0,2.07.88,14.82,14.82,0,0,1,1.52.59,4,4,0,0,1,1,.63,2.15,2.15,0,0,1,.54.79,3,3,0,0,1,.16,1,2,2,0,0,1-.66,1.66,2.3,2.3,0,0,1-1.49.54,3,3,0,0,1-1.16-.2,1.88,1.88,0,0,1-.73-.55,2,2,0,0,1-.38-.87,5.66,5.66,0,0,1-.1-1.13v-.53h-3.6v.73a5.2,5.2,0,0,0,1.31,3.8c.88.88,2.33,1.32,4.36,1.32a7.19,7.19,0,0,0,4.56-1.29,4.89,4.89,0,0,0,1.64-4.11,6.93,6.93,0,0,0-.15-1.5A3.4,3.4,0,0,0,139.91,191.87Z"/></svg>