<svg id="Layer_1" data-name="Layer 1" xmlns="http://www.w3.org/2000/svg" viewBox="0 0 200 200"><defs><style>.cls-1,.cls-2{fill:#3c3c3b;}.cls-1{fill-rule:evenodd;}</style></defs><title>gaming</title><path class="cls-1" d="M100,0a86.46,86.46,0,1,0,86.46,86.46A86.56,86.56,0,0,0,100,0Zm0,165a78.59,78.59,0,1,1,78.59-78.58A78.68,78.68,0,0,1,100,165Z"/><path class="cls-1" d="M68,192.68h2.4v1.84a3.33,3.33,0,0,1-.22,1.28,3.1,3.1,0,0,1-.57.89,2.16,2.16,0,0,1-.74.53,1.75,1.75,0,0,1-2-.31,3.26,3.26,0,0,1-.76-1.41,12.21,12.21,0,0,1-.36-2.24c-.07-.87-.1-1.85-.1-2.92a14.34,14.34,0,0,1,.58-4.85A2,2,0,0,1,68.08,184a1.58,1.58,0,0,1,1,.29,2.38,2.38,0,0,1,.64.73,3.42,3.42,0,0,1,.37,1,5.33,5.33,0,0,1,.11,1h3.48a6.17,6.17,0,0,0-1.31-4.23A5.51,5.51,0,0,0,68,181.35a6.54,6.54,0,0,0-2.9.58,4.58,4.58,0,0,0-1.87,1.73,7.94,7.94,0,0,0-1,2.87,23.39,23.39,0,0,0-.29,4,35.89,35.89,0,0,0,.2,4.13,9.24,9.24,0,0,0,.79,3,4,4,0,0,0,1.64,1.79,5.53,5.53,0,0,0,2.71.58,5.12,5.12,0,0,0,2.21-.44,3.89,3.89,0,0,0,1.58-1.5h0v1.66h2.67V190H68Z"/><path class="cls-1" d="M79.69,181.71l-4.77,18H78.7l.84-3.81h4.79l.83,3.81H89l-4.77-18Zm.48,11.23,1.74-8.1h0l1.74,8.1Z"/><polygon class="cls-1" points="98.31 194.42 98.26 194.42 95.68 181.71 90.28 181.71 90.28 199.72 93.62 199.72 93.62 185.34 93.67 185.34 96.87 199.72 99.69 199.72 102.9 185.34 102.95 185.34 102.95 199.72 106.28 199.72 106.28 181.71 100.91 181.71 98.31 194.42"/><rect class="cls-2" x="109.06" y="181.71" width="3.63" height="18.02"/><polygon class="cls-1" points="124.02 194.04 123.97 194.04 119.58 181.71 115.39 181.71 115.39 199.72 118.72 199.72 118.72 187.11 118.77 187.11 123.21 199.72 127.35 199.72 127.35 181.71 124.02 181.71 124.02 194.04"/><path class="cls-1" d="M135.67,192.68h2.4v1.84a3.15,3.15,0,0,1-.23,1.28,2.89,2.89,0,0,1-.56.89,2.23,2.23,0,0,1-.73.53,1.81,1.81,0,0,1-.72.18,1.72,1.72,0,0,1-1.28-.49,3.26,3.26,0,0,1-.76-1.41,12.21,12.21,0,0,1-.36-2.24c-.07-.87-.1-1.85-.1-2.92a14.34,14.34,0,0,1,.58-4.85A2,2,0,0,1,135.8,184a1.58,1.58,0,0,1,.95.29,2.38,2.38,0,0,1,.64.73,3.42,3.42,0,0,1,.37,1,5.33,5.33,0,0,1,.11,1h3.48a6.17,6.17,0,0,0-1.31-4.23,5.51,5.51,0,0,0-4.29-1.48,6.54,6.54,0,0,0-2.9.58,4.58,4.58,0,0,0-1.87,1.73,7.94,7.94,0,0,0-1,2.87,23.31,23.31,0,0,0-.3,4,35.69,35.69,0,0,0,.21,4.13,9.24,9.24,0,0,0,.79,3,4,4,0,0,0,1.64,1.79A5.53,5.53,0,0,0,135,200a5.12,5.12,0,0,0,2.21-.44,3.89,3.89,0,0,0,1.58-1.5h0v1.66h2.67V190h-5.88Z"/><path class="cls-1" d="M156.18,81.69c-5.92-27.18-14.28-33.88-19.37-36.56-8.15-4.32-17.6-1.8-20.74-.18-3.56,1.83-6,5.33-9.58,6.84-4.18,1.74-9.88,2.21-14.14.1-3.43-1.67-6.42-5.26-10.56-6.86-5.22-2-13.94-4.84-22.57,1.35-2,1.45-16.61,13.66-21,51.78-2.69,23.5,10.19,31.07,9.71,30.73,3.32,2.36,10.74,6.39,20.81.09,6.73-4.2,12.18-12.5,12.18-12.5s2.42-4.62,5.66-6.57c2.27-1.4,5.7-.34,5.7-.34h12.1a14.52,14.52,0,0,1,6.53.71,9.66,9.66,0,0,1,4.09,4s8,10.31,15.62,15.56c3.25,2.23,16.33,4.79,23.08-3.45C158.12,121,161.14,104.36,156.18,81.69ZM91.57,79.27A3.72,3.72,0,0,1,87.9,83H78.74v9.34a3.69,3.69,0,0,1-3.66,3.74H72.33a3.71,3.71,0,0,1-3.67-3.74V83H59.51a3.71,3.71,0,0,1-3.68-3.75V76.48a3.71,3.71,0,0,1,3.68-3.75h9.15V63.38a3.71,3.71,0,0,1,3.66-3.75h2.75a3.72,3.72,0,0,1,3.67,3.75v9.35H87.9a3.71,3.71,0,0,1,3.67,3.75Zm25.82,13.09a7,7,0,1,1,6.86-7A6.95,6.95,0,0,1,117.39,92.36ZM130,76.78a6.93,6.93,0,1,1,6.79-6.93A6.85,6.85,0,0,1,130,76.78Z"/></svg>