<svg id="Layer_1" data-name="Layer 1" xmlns="http://www.w3.org/2000/svg" viewBox="0 0 200 200"><defs><style>.cls-1{fill:#e94e1b;}</style></defs><title>geeks</title><path class="cls-1" d="M74.6,192.69H77v1.84a3.31,3.31,0,0,1-.22,1.27,2.89,2.89,0,0,1-.57.9,2.56,2.56,0,0,1-.73.53,1.87,1.87,0,0,1-.72.17,1.7,1.7,0,0,1-1.27-.49,3.26,3.26,0,0,1-.76-1.41,11.34,11.34,0,0,1-.37-2.24c-.06-.87-.1-1.84-.1-2.92a14.53,14.53,0,0,1,.58-4.84,2,2,0,0,1,1.9-1.47,1.55,1.55,0,0,1,.94.29,2.44,2.44,0,0,1,.65.74,3.61,3.61,0,0,1,.36,1,4.57,4.57,0,0,1,.11,1h3.49A6.12,6.12,0,0,0,79,182.84c-.87-1-2.3-1.48-4.29-1.48a6.46,6.46,0,0,0-2.9.58,4.55,4.55,0,0,0-1.86,1.73,8.08,8.08,0,0,0-1,2.86,24.5,24.5,0,0,0-.29,4,38.24,38.24,0,0,0,.2,4.12,9.16,9.16,0,0,0,.8,3,3.93,3.93,0,0,0,1.64,1.79A5.5,5.5,0,0,0,74,200a5.15,5.15,0,0,0,2.21-.44,3.93,3.93,0,0,0,1.57-1.5h0v1.66h2.68V190H74.6Z"/><polygon class="cls-1" points="86.45 191.9 92.51 191.9 92.51 188.93 86.45 188.93 86.45 184.69 92.89 184.69 92.89 181.71 82.82 181.71 82.82 199.72 93.14 199.72 93.14 196.75 86.45 196.75 86.45 191.9"/><polygon class="cls-1" points="98.59 191.9 104.64 191.9 104.64 188.93 98.59 188.93 98.59 184.69 105.02 184.69 105.02 181.71 94.95 181.71 94.95 199.72 105.27 199.72 105.27 196.75 98.59 196.75 98.59 191.9"/><polygon class="cls-1" points="119.29 181.71 115.36 181.71 110.77 188.93 110.72 188.93 110.72 181.71 107.09 181.71 107.09 199.72 110.72 199.72 110.72 194.38 112.06 192.33 115.76 199.72 119.85 199.72 114.4 189.43 119.29 181.71"/><path class="cls-1" d="M131.21,191.79a4.72,4.72,0,0,0-1-1.06,9,9,0,0,0-1.7-.95l-2.8-1.21a3.18,3.18,0,0,1-1.51-1,2.67,2.67,0,0,1-.35-1.4,3.48,3.48,0,0,1,.09-.79,1.46,1.46,0,0,1,.32-.66,1.68,1.68,0,0,1,.65-.47,2.47,2.47,0,0,1,1-.18,1.66,1.66,0,0,1,1.51.7,3.63,3.63,0,0,1,.45,2h3.48v-.51a5.24,5.24,0,0,0-.41-2.2,4.11,4.11,0,0,0-1.16-1.52,4.87,4.87,0,0,0-1.77-.86,9.16,9.16,0,0,0-2.23-.26,6,6,0,0,0-4.09,1.31,5,5,0,0,0-1.48,4,6.38,6.38,0,0,0,.27,2,4.21,4.21,0,0,0,.87,1.49,5.71,5.71,0,0,0,1.48,1.12,12.52,12.52,0,0,0,2.09.88,14,14,0,0,1,1.53.6,4.11,4.11,0,0,1,1,.64,2.1,2.1,0,0,1,.54.8,3,3,0,0,1,.16,1,2,2,0,0,1-.67,1.68,2.3,2.3,0,0,1-1.5.54,3,3,0,0,1-1.17-.2,1.76,1.76,0,0,1-.74-.56,1.83,1.83,0,0,1-.38-.86,5.86,5.86,0,0,1-.1-1.15v-.53h-3.64v.73a5.23,5.23,0,0,0,1.33,3.83c.88.89,2.35,1.34,4.4,1.34a7.23,7.23,0,0,0,4.6-1.3,5,5,0,0,0,1.66-4.15,7,7,0,0,0-.16-1.51A3.49,3.49,0,0,0,131.21,191.79Z"/><path class="cls-1" d="M100,0a87.28,87.28,0,1,0,87.27,87.27A87.37,87.37,0,0,0,100,0Zm0,166.6a79.33,79.33,0,1,1,79.33-79.33A79.42,79.42,0,0,1,100,166.6Z"/><path class="cls-1" d="M99.77,37.28c-27,0-49,23.07-49,51.43s22,51.44,49,51.44c23.25,0,42.76-17.09,47.75-39.93A23.5,23.5,0,0,0,148.65,93c0-.17,0-.34,0-.52.08-1.25.14-2.5.14-3.78C148.77,60.35,126.79,37.28,99.77,37.28Zm27.11,75.08c-10.1,0-18.31-8.68-18.31-19.35s8.21-19.34,18.31-19.34c9.31,0,17,7.38,18.15,16.88A50.35,50.35,0,0,1,143.55,101,18.32,18.32,0,0,1,126.88,112.36Zm0-42.15c-11.66,0-21.18,9.66-21.72,21.74h-8C96.62,79.87,87.1,70.21,75.44,70.21c-9.94,0-18.32,7-20.92,16.56A49.51,49.51,0,0,1,56.9,73.34c2.78-2.85,7.1-7.39,10-11,9.6-11.94,26.14-9.6,32.86-6.65s14.92,7.64,24.52,7.64H138.1a49,49,0,0,1,6.07,15.88A21.43,21.43,0,0,0,126.88,70.21ZM93.75,93c0,10.67-8.21,19.35-18.31,19.35S57.13,103.68,57.13,93s8.21-19.34,18.31-19.34S93.75,82.35,93.75,93Zm6,43.44c-19.2,0-35.63-12.66-42.22-30.46a21.51,21.51,0,0,0,17.89,9.83c9.63,0,17.81-6.59,20.67-15.68h10.1c2.86,9.09,11,15.68,20.67,15.68a20.92,20.92,0,0,0,12.67-4.3C131.86,126.36,116.91,136.45,99.77,136.45Z"/><ellipse class="cls-1" cx="78.91" cy="91.95" rx="6.38" ry="6.71"/><path class="cls-1" d="M122.59,85.24A6.72,6.72,0,1,0,129,92,6.55,6.55,0,0,0,122.59,85.24Z"/><rect class="cls-1" x="96.07" y="115.99" width="10.77" height="8.19"/></svg>