<svg id="Layer_1" data-name="Layer 1" xmlns="http://www.w3.org/2000/svg" viewBox="0 0 200 200"><defs><style>.cls-1,.cls-3{fill:#bf1449;}.cls-2{fill:#f08587;}.cls-3{fill-rule:evenodd;}</style></defs><title>my cause</title><path class="cls-1" d="M100,173a86.5,86.5,0,1,1,86.49-86.5A86.59,86.59,0,0,1,100,173ZM100,7.87a78.62,78.62,0,1,0,78.62,78.62A78.71,78.71,0,0,0,100,7.87Z"/><path class="cls-1" d="M51.78,181.88l2.55,12.6h.05L57,181.88h5.32v17.84H59V185.48h-.06l-3.17,14.24H53l-3.17-14.24h-.05v14.24h-3.3V181.88Z"/><path class="cls-1" d="M70.07,188.78h.05l2.5-6.9h3.9L71.9,192.7v7H68.3v-7l-4.63-10.82h4.06Z"/><path class="cls-1" d="M91,185.06a1.73,1.73,0,0,0-1.69-.88,1.68,1.68,0,0,0-1.11.36,2.43,2.43,0,0,0-.69,1.17,10.12,10.12,0,0,0-.35,2.13c-.07.87-.1,1.94-.1,3.21a31.77,31.77,0,0,0,.14,3.28,7.28,7.28,0,0,0,.42,1.93,1.85,1.85,0,0,0,.73.93,2.06,2.06,0,0,0,1,.23,2.38,2.38,0,0,0,.89-.16,1.51,1.51,0,0,0,.71-.65,4.24,4.24,0,0,0,.48-1.37,13.21,13.21,0,0,0,.17-2.34h3.6a17.21,17.21,0,0,1-.22,2.75,6.27,6.27,0,0,1-.84,2.28,4.21,4.21,0,0,1-1.73,1.52,6.46,6.46,0,0,1-2.88.55,6.86,6.86,0,0,1-3.23-.65,4.39,4.39,0,0,1-1.84-1.88,8.21,8.21,0,0,1-.82-2.92,37,37,0,0,1,0-7.49,8.21,8.21,0,0,1,.82-2.93,4.66,4.66,0,0,1,1.84-1.92,6.6,6.6,0,0,1,3.23-.68,6.28,6.28,0,0,1,3,.62,4.35,4.35,0,0,1,1.67,1.59,5.55,5.55,0,0,1,.68,2.07,17.59,17.59,0,0,1,.14,2.09h-3.6A6.5,6.5,0,0,0,91,185.06Z"/><path class="cls-1" d="M105.19,181.88l4.73,17.84h-3.75l-.83-3.77H100.6l-.83,3.77H96l4.73-17.84ZM104.72,193,103,185h0l-1.73,8Z"/><path class="cls-1" d="M114.54,194.33a7.72,7.72,0,0,0,.09,1.23,2.83,2.83,0,0,0,.33,1,1.69,1.69,0,0,0,.65.65,2.47,2.47,0,0,0,2.08,0,1.81,1.81,0,0,0,.64-.65,2.63,2.63,0,0,0,.32-1,7.72,7.72,0,0,0,.09-1.23V181.88h3.6v12.45a7.32,7.32,0,0,1-.47,2.81,4.54,4.54,0,0,1-1.28,1.76,4.33,4.33,0,0,1-1.82.87,9.93,9.93,0,0,1-2.13.23,11.29,11.29,0,0,1-2.12-.2,4.27,4.27,0,0,1-1.83-.81,4.15,4.15,0,0,1-1.27-1.74,7.51,7.51,0,0,1-.48-2.92V181.88h3.6Z"/><path class="cls-1" d="M127.52,194.68a5.66,5.66,0,0,0,.1,1.13,1.93,1.93,0,0,0,.37.86,1.74,1.74,0,0,0,.74.55,2.81,2.81,0,0,0,1.16.2,2.29,2.29,0,0,0,1.49-.53,2,2,0,0,0,.66-1.66,3,3,0,0,0-.16-1,2.07,2.07,0,0,0-.54-.79,4,4,0,0,0-1-.64,15,15,0,0,0-1.52-.58,12.75,12.75,0,0,1-2.07-.88,5.85,5.85,0,0,1-1.47-1.11,4,4,0,0,1-.86-1.48,6.25,6.25,0,0,1-.27-1.93,5,5,0,0,1,1.47-3.95,5.88,5.88,0,0,1,4-1.3,8.54,8.54,0,0,1,2.21.26,4.54,4.54,0,0,1,1.75.85,3.82,3.82,0,0,1,1.15,1.5,5.22,5.22,0,0,1,.42,2.19v.5h-3.45a3.61,3.61,0,0,0-.45-2,1.67,1.67,0,0,0-1.5-.68,2.43,2.43,0,0,0-1,.17,1.73,1.73,0,0,0-.64.46,1.68,1.68,0,0,0-.33.67,3.94,3.94,0,0,0-.08.77,2.54,2.54,0,0,0,.35,1.39,3.16,3.16,0,0,0,1.5,1l2.77,1.2a9.16,9.16,0,0,1,1.68.93,4.85,4.85,0,0,1,1,1.05,3.52,3.52,0,0,1,.54,1.24,6.93,6.93,0,0,1,.15,1.5,4.89,4.89,0,0,1-1.64,4.11,7.19,7.19,0,0,1-4.56,1.29c-2,0-3.49-.44-4.36-1.32a5.18,5.18,0,0,1-1.31-3.8v-.73h3.6Z"/><path class="cls-1" d="M147.56,184.83h-6.37V189h6V192h-6v4.79h6.62v2.95H137.59V181.88h10Z"/><path class="cls-2" d="M85.41,109.17c-4.86-3.81-8.54-8.53-5.28-14.62,2.56-4.79,9.21-5.1,13.35-1.25,3.11-4.71,9.64-6,13.26-1.93,4.61,5.16,2.13,10.61-1.69,15.46-3.53,4.46-6.21,6.86-9.08,7.33-2.91.22-6.08-1.48-10.56-5Z"/><path class="cls-3" d="M113.42,124.48a20.92,20.92,0,0,1-11.58,3.1c-1.38-.06-1.06.34-.12.79a12.34,12.34,0,0,0,3.67,1,13.66,13.66,0,0,0,4.79-1,64.06,64.06,0,0,0,6.41-2.86,27.53,27.53,0,0,0,4.61-5c.55-.77,1.31-1.57,1.31-1.9,0-.64-1.84-.42-2.54.21-2.12,1.91-3.93,4.15-6.55,5.69ZM111.28,117a65.24,65.24,0,0,1-11.72,2c-4.6.54-9.63,1.06-14.28,0l-2.83-.64a.47.47,0,0,1-.2-.68c1.09-2.25,4.77-1.23,5.78-1.35,3.52-.47,7.22-1.66,10.5-2.28a14.68,14.68,0,0,0,2.6-1.09,14.5,14.5,0,0,0,2.57-1.23,12,12,0,0,0,2.52-2c1-1.23.62-2.74-.87-2.7-5.33.2-12.62,0-13.49-2-.49-.46-.14-1,.59-1a35.5,35.5,0,0,0,9.54-1.67.19.19,0,0,1,.1,0c6.74-2.19,18.39-2.5,23.2-1.92,14.33-14.57-.75-38.06-28.81-14.81C90.58,50.51,66,57.72,63.88,80c-1.23,13,9.73,37.28,20.65,43,6.15-1.27,11.2-2.9,18.28-2.86h.1a35.34,35.34,0,0,0,9.6-1.31c.72-.17,1.19.2.87.79-.2,2.24-7.1,4.61-12.23,6-1.44.41-1.31,2,0,2.84a12,12,0,0,0,3,1.15,14.41,14.41,0,0,0,2.82.4,15.22,15.22,0,0,0,2.81.24c3.31-.4,7.09-1.61,10.58-2.22,1-.2,4-2.49,5.69-.67a.48.48,0,0,1,0,.71l-2.51,1.47a51.73,51.73,0,0,1-11.38,5.1c-10.78,2.18-20.86,2-30.42-1.86C51.69,120.63,33.92,58.48,69.7,46.55c16.78-5.6,29.54,4,33.8,20.15,34.4-23.4,71,31.49,7.78,50.3Zm-3.38,12.61a5.17,5.17,0,0,0,1.94.25,25.71,25.71,0,0,0,5-1c1.28-.33,2.7-.61,4-1a5,5,0,0,0,2.81-1.52c1.21-.79,3.76-5.17,5-6.32,1.55-1.48.41-2-1.06-1.61-1.25.35-3.45,2.94-4.37,3.87a15.28,15.28,0,0,1-2.84,2.74,69.86,69.86,0,0,1-10.5,4.53Z"/><rect class="cls-1" x="71.26" y="90.62" width="6.81" height="0.83" rx="0.26" transform="translate(55.52 -25.14) rotate(30)"/><rect class="cls-1" x="75.23" y="86.15" width="6.81" height="0.83" rx="0.26" transform="translate(109.98 -26.11) rotate(57.8)"/><rect class="cls-1" x="82.14" y="85.05" width="6.81" height="0.83" rx="0.26" transform="translate(192.33 28.75) rotate(107.05)"/></svg>