<svg id="Layer_1" data-name="Layer 1" xmlns="http://www.w3.org/2000/svg" viewBox="0 0 595.28 595.28"><defs><style>.cls-1{fill:#2976ba;}</style></defs><title>service desk</title><path class="cls-1" d="M549.69,0H45.59A45.65,45.65,0,0,0,0,45.6V435.72a45.65,45.65,0,0,0,45.59,45.6H202.68a6.23,6.23,0,0,1,6.23,6.23c0,54.11-18.69,74.59-26.72,80.88a6.18,6.18,0,0,1-3.85,1.33H126.71a12.76,12.76,0,1,0,0,25.52H468.56a12.76,12.76,0,1,0,0-25.52H416.74a6.24,6.24,0,0,1-3.85-1.33c-8-6.25-26.53-26.65-26.53-80.88a6.24,6.24,0,0,1,6.24-6.23H549.69a45.65,45.65,0,0,0,45.59-45.6V45.6A45.65,45.65,0,0,0,549.69,0ZM375.12,566.8a6.24,6.24,0,0,1-5.3,3H225.45a6.24,6.24,0,0,1-5.57-9c9.65-19.27,14.55-43.89,14.55-73.18a6.23,6.23,0,0,1,6.23-6.23h114a6.23,6.23,0,0,1,6.24,6.23c0,29.29,4.89,53.91,14.54,73.18A6.22,6.22,0,0,1,375.12,566.8ZM569.76,435.72a20.35,20.35,0,0,1-20.07,20.09H45.59a20.35,20.35,0,0,1-20.07-20.09V45.6A20.35,20.35,0,0,1,45.59,25.52h504.1A20.35,20.35,0,0,1,569.76,45.6Z"/><path class="cls-1" d="M475.67,262.63l-19.57-13.1a6.25,6.25,0,0,1-2.76-5.35c0-1.29,0-2.61,0-3.91s0-2.66-.05-4a6.21,6.21,0,0,1,2.74-5.34l19.47-13.19a12.71,12.71,0,0,0,5.36-13.06,178.9,178.9,0,0,0-13.95-41.81,12.81,12.81,0,0,0-11.51-7.26h-.38l-24.17.73a6.22,6.22,0,0,1-5.11-2.67c-1.48-2.12-3.07-4.27-4.87-6.56a6.22,6.22,0,0,1-1-6l7.8-21.77a12.73,12.73,0,0,0-3.45-13.78,187.67,187.67,0,0,0-36.18-25.7A12.55,12.55,0,0,0,374.32,81l-19,14.39a6.21,6.21,0,0,1-3.77,1.27,6.39,6.39,0,0,1-2-.34c-3-1-5.69-1.89-8.36-2.65A6.2,6.2,0,0,1,337,89.48L330.2,67.24a12.77,12.77,0,0,0-10.74-9A187.48,187.48,0,0,0,297.7,57a206.4,206.4,0,0,0-22.89,1.41,12.76,12.76,0,0,0-10.68,9l-6.6,22.27a6.25,6.25,0,0,1-4.23,4.21c-2.89.85-5.69,1.75-8.32,2.69a6.29,6.29,0,0,1-2.09.36,6.22,6.22,0,0,1-3.75-1.25l-19-14.3a12.84,12.84,0,0,0-7.68-2.56,12.56,12.56,0,0,0-6.13,1.59,187.86,187.86,0,0,0-36,25.86,12.75,12.75,0,0,0-3.38,13.82l7.93,21.7a6.21,6.21,0,0,1-.93,6c-1.63,2.1-3.27,4.33-4.88,6.63a6.22,6.22,0,0,1-5.1,2.67l-24-.6a13.06,13.06,0,0,0-12,7.34,183.3,183.3,0,0,0-13.72,41.83,12.73,12.73,0,0,0,5.43,13.08l19.58,13.07a6.23,6.23,0,0,1,2.77,5.37c0,1.31,0,2.64,0,4s0,2.47.07,3.93a6.22,6.22,0,0,1-2.74,5.34l-19.52,13.2a12.7,12.7,0,0,0-5.35,13.11,179.9,179.9,0,0,0,14,41.71,12.61,12.61,0,0,0,11,7.32l25-.75a6.24,6.24,0,0,1,5.17,2.66c1.48,2.11,3.08,4.26,4.88,6.57a6.19,6.19,0,0,1,1,6l-7.82,21.77A12.73,12.73,0,0,0,171,375.71a189,189,0,0,0,36.19,25.67,12.6,12.6,0,0,0,6.06,1.54,12.77,12.77,0,0,0,7.73-2.6l19-14.4a6.3,6.3,0,0,1,5.82-.92c2.64.92,5.44,1.81,8.34,2.64a6.26,6.26,0,0,1,4.24,4.19l6.75,22.26a12.71,12.71,0,0,0,10.78,9,187.09,187.09,0,0,0,21.65,1.3c1.84-.1,3.78-.18,5.78-.26,5.59-.23,11.38-.47,17.11-1.14a12.77,12.77,0,0,0,10.73-9l6.64-22.3a6.21,6.21,0,0,1,4.25-4.2c2.55-.74,5.27-1.61,8.31-2.68a6.07,6.07,0,0,1,2.06-.35,6.19,6.19,0,0,1,3.74,1.25l19,14.28a12.64,12.64,0,0,0,7.65,2.55,12.85,12.85,0,0,0,6.15-1.58A186.14,186.14,0,0,0,425.06,375a12.73,12.73,0,0,0,3.36-13.78l-7.94-21.7a6.28,6.28,0,0,1,.93-6c1.81-2.33,3.4-4.48,4.84-6.58a6.21,6.21,0,0,1,5.13-2.69l24.52.6a13.1,13.1,0,0,0,11.49-7.35,178.68,178.68,0,0,0,13.7-41.85A12.73,12.73,0,0,0,475.67,262.63ZM449.23,295a6.23,6.23,0,0,1-5.85,4.08l-21.56-.54c-4.94.13-9.39,2.52-11.6,6.26a125.14,125.14,0,0,1-15,20.27,12.79,12.79,0,0,0-2.53,13l7.16,19.55a6.24,6.24,0,0,1-2,7c-3.26,2.55-6.77,5.07-10.43,7.48a6.22,6.22,0,0,1-7.17-.22l-17.27-13a12.64,12.64,0,0,0-7.65-2.53,13.13,13.13,0,0,0-5.08,1,133.45,133.45,0,0,1-24.35,7.85,12.72,12.72,0,0,0-9.53,8.83l-6,20.19a6.24,6.24,0,0,1-5.7,4.46q-3.17.13-6.36.15c-.59,0-1.23.06-1.91.06-1.3,0-2.77-.07-4.15-.15l-.89-.05a6.22,6.22,0,0,1-5.63-4.42l-6.11-20.16a12.76,12.76,0,0,0-9.59-8.78,131.65,131.65,0,0,1-24.42-7.71,12.47,12.47,0,0,0-5-1,12.74,12.74,0,0,0-7.7,2.62l-17.19,13.07a6.25,6.25,0,0,1-7.17.25c-3.61-2.35-7.13-4.84-10.46-7.41a6.23,6.23,0,0,1-2.06-7l7.05-19.6a12.76,12.76,0,0,0-2.61-12.94,126.39,126.39,0,0,1-15.08-20.2c-2.8-4.65-7.78-5.93-11.57-6.17l-21.63.65a6.24,6.24,0,0,1-5.82-4c-1.43-3.76-2.74-7.65-3.89-11.58A6.23,6.23,0,0,1,145,277.3l17.58-11.88a12.75,12.75,0,0,0,5.53-11.93c-.42-4-.64-8.22-.66-12.49a115.13,115.13,0,0,1,.6-12.47,12.78,12.78,0,0,0-5.6-11.92l-17.64-11.77a6.23,6.23,0,0,1-2.53-6.91c1.1-3.85,2.39-7.76,3.83-11.59a6.23,6.23,0,0,1,5.83-4.05l21.57.54a13.5,13.5,0,0,0,11.58-6.28,129.08,129.08,0,0,1,15-20.31,12.73,12.73,0,0,0,2.5-12.92l-7.16-19.53a6.24,6.24,0,0,1,2-7.07c3.33-2.59,6.82-5.1,10.37-7.45a6.23,6.23,0,0,1,7.19.21l17.25,13A12.85,12.85,0,0,0,245,124a134.4,134.4,0,0,1,24.38-7.84,12.81,12.81,0,0,0,9.53-8.83l6-20.18a6.24,6.24,0,0,1,5.7-4.45c2.18-.1,4.39-.16,6.62-.16a5.44,5.44,0,0,1,.57,0c.69.06,1.41.07,2.14.07h2.15c.57,0,1.14,0,1.7,0A6.22,6.22,0,0,1,309.54,87l6.12,20.17a12.75,12.75,0,0,0,9.56,8.77,132.27,132.27,0,0,1,24.41,7.71,12.81,12.81,0,0,0,12.71-1.58l17.19-13a6.21,6.21,0,0,1,7.17-.27c3.63,2.36,7.16,4.86,10.49,7.43a6.23,6.23,0,0,1,2.05,7.05l-7,19.55a12.74,12.74,0,0,0,2.55,12.87A133,133,0,0,1,409.87,176c2.37,4,6.15,6,11.52,6.19l21.69-.67a6.23,6.23,0,0,1,5.83,4c1.52,4,2.78,7.79,3.87,11.6a6.22,6.22,0,0,1-2.49,6.88L432.74,215.9a12.74,12.74,0,0,0-5.54,11.81c.44,4.46.66,8.59.66,12.61a124.11,124.11,0,0,1-.61,12.57,12.79,12.79,0,0,0,5.61,11.8l17.64,11.8a6.24,6.24,0,0,1,2.53,6.9C451.93,287.19,450.65,291.08,449.23,295Z"/><path class="cls-1" d="M297.64,151.94a88.73,88.73,0,1,0,88.72,88.72A88.83,88.83,0,0,0,297.64,151.94Zm0,151.93a63.21,63.21,0,1,1,63.21-63.21A63.27,63.27,0,0,1,297.64,303.87Z"/></svg>