<svg id="Layer_1" data-name="Layer 1" xmlns="http://www.w3.org/2000/svg" viewBox="0 0 595.28 595.28"><defs><style>.cls-1{fill:#2976ba;}</style></defs><title>shop</title><path class="cls-1" d="M549.69,0H45.58A45.65,45.65,0,0,0,0,45.6V435.72a45.64,45.64,0,0,0,45.58,45.6h157.1a6.23,6.23,0,0,1,6.23,6.23c0,54.11-18.69,74.59-26.72,80.88a6.18,6.18,0,0,1-3.85,1.33H126.71a12.76,12.76,0,1,0,0,25.52H468.56a12.76,12.76,0,1,0,0-25.52H416.73a6.24,6.24,0,0,1-3.84-1.33c-8-6.25-26.53-26.65-26.53-80.88a6.23,6.23,0,0,1,6.24-6.23H549.69a45.65,45.65,0,0,0,45.59-45.6V45.6A45.65,45.65,0,0,0,549.69,0ZM375.12,566.8a6.24,6.24,0,0,1-5.3,3H225.45a6.24,6.24,0,0,1-5.57-9c9.65-19.27,14.55-43.89,14.55-73.18a6.23,6.23,0,0,1,6.23-6.23h114a6.24,6.24,0,0,1,6.24,6.23c0,29.29,4.89,53.91,14.54,73.18A6.22,6.22,0,0,1,375.12,566.8ZM569.76,435.72a20.35,20.35,0,0,1-20.07,20.09H45.58a20.35,20.35,0,0,1-20.06-20.09V45.6A20.34,20.34,0,0,1,45.58,25.52H549.69A20.35,20.35,0,0,1,569.76,45.6Z"/><path class="cls-1" d="M458,88.35l-91.79-9.71V57.81H204.42V152c-3.8,0-7.08-.2-10.32.06s-4.39-.78-5.09-4C185,130,180.68,112,176.74,93.81c-.84-3.83-2.49-5.62-6.32-6.66-13.76-3.77-27.41-8-41.1-12-6.93-2-13.88-4-21.06-6.1L100,96.69c15.82,4.6,31.12,9.17,46.51,13.41,3.64,1,5.27,2.67,6.11,6.39Q178.7,231.56,205,346.58c.82,3.63,2.12,5,6.12,5q121.39-.21,242.8-.11c1.37,0,2.75-.15,4.22-.24V322.51h-229c-1.31-5.56-2.58-10.91-3.95-16.73h236.3c11.28-51.26,22.5-102.25,33.83-153.7H447Zm-91.47,19.36,57.6,6.11c-2.16,12.72-4.28,25.15-6.45,37.9H366.48ZM233.78,87h103.1v64.91H233.78Zm225.85,94.3c-3.81,17.57-7.55,34.86-11.31,52.15-2.92,13.39-6,26.74-8.72,40.18-.66,3.3-2,4-5.08,4q-79.59-.12-159.17-.07H219c-7.32-32.21-14.56-64-21.89-96.28Z"/><path class="cls-1" d="M408.88,372.12A30.74,30.74,0,1,0,440,402.66,30.9,30.9,0,0,0,408.88,372.12Z"/><path class="cls-1" d="M252.82,372.11A30.75,30.75,0,1,0,283.63,403,30.74,30.74,0,0,0,252.82,372.11Z"/></svg>