<svg id="Layer_1" data-name="Layer 1" xmlns="http://www.w3.org/2000/svg" viewBox="0 0 595.28 595.28"><title>skype</title><path d="M574.32,385.79a163.28,163.28,0,0,0-15.71-40.87,4.29,4.29,0,0,1-.56-2.54c2.55-14.41,3.48-28.95,3.49-47.5a243.49,243.49,0,0,0-3.64-41.12,258.84,258.84,0,0,0-23.13-72.28,263.87,263.87,0,0,0-162.09-137,254.27,254.27,0,0,0-60.44-10.33c-9.37-.44-18.77-.25-28.15-.11a201.69,201.69,0,0,0-31,3.14,4.22,4.22,0,0,1-2.42-.37c-2.55-1.23-5-2.65-7.55-3.88a157.82,157.82,0,0,0-112.2-10.1c-30.59,8.8-56.32,25.28-76.86,49.59-24,28.43-36.22,61.47-37.17,98.63a156.56,156.56,0,0,0,19.8,79.43,4.31,4.31,0,0,1,.48,2.68,234.12,234.12,0,0,0-3.32,34,278,278,0,0,0,3.22,52.67,263.54,263.54,0,0,0,209,216.67,238.55,238.55,0,0,0,36.77,4.57c9.47.37,19,.24,28.46.11a204.2,204.2,0,0,0,30.7-3.08,4.69,4.69,0,0,1,2.83.45c25.74,13.95,53.15,20.8,82.49,19.67a153.66,153.66,0,0,0,32.31-4.57c32.34-8.25,59.51-25,81.15-50.38,24.25-28.46,36.56-61.6,37.58-98.93A150.61,150.61,0,0,0,574.32,385.79Zm-41.5,68.53A116,116,0,0,1,439,536.91c-20.23,3.18-39.92.79-59.14-6.18a138.74,138.74,0,0,1-27.58-14.1,4.17,4.17,0,0,0-2.65-.49c-9.26,1.48-18.49,3.22-27.77,4.54a186.18,186.18,0,0,1-37.61,1.26A224,224,0,0,1,96.08,395.87a220,220,0,0,1-20-65.79,240.89,240.89,0,0,1-2.19-34.86c-.31-13,1.8-28.81,5.48-44.38a11.52,11.52,0,0,0-1.91-10.34,103.36,103.36,0,0,1-13.93-26.77,119.44,119.44,0,0,1-6.25-31.53A117.82,117.82,0,0,1,61.46,142a117.44,117.44,0,0,1,82.83-81.16c25.63-6.73,50.7-4.57,75.23,5.24a136.62,136.62,0,0,1,23.19,12.41,4,4,0,0,0,3.25.66,284.78,284.78,0,0,1,38-5.66A185.42,185.42,0,0,1,311,73.35a221.75,221.75,0,0,1,45.63,7.46A219.15,219.15,0,0,1,430,116.3Q485.73,157.6,509,223a219.41,219.41,0,0,1,11.15,49.52,243.07,243.07,0,0,1,1.07,35.38,200.14,200.14,0,0,1-4.89,35c-.4,1.87-.68,3.78-1.15,5.63a3.53,3.53,0,0,0,.54,2.84c3.6,6.14,7.45,12.15,10.62,18.5a106.69,106.69,0,0,1,10.47,38.5A124,124,0,0,1,532.82,454.32Z"/><path d="M402.39,299.45c-10.71-9.75-23.26-16.27-36.76-21.18-12.19-4.44-24.91-6.8-37.5-9.69-17.9-4.11-35.82-8.13-53.67-12.46a75.76,75.76,0,0,1-23.08-9.32c-9.07-5.78-13.8-13.73-12.6-24.79a31.49,31.49,0,0,1,10.61-21c6.84-6.05,15.07-9.08,23.9-10.67,10.58-1.91,21.19-1.65,31.81-.36,17.78,2.16,32.7,9.76,44.72,23.1,4.29,4.76,8.67,9.46,13.25,13.93A26.39,26.39,0,0,0,377,234.31a37.24,37.24,0,0,0,21.63-2.58c10.46-4.48,16.07-13.15,15.95-24.52-.11-9.6-3.66-18-9.24-25.64-6.74-9.2-15.4-16.26-25.09-22.06-24.88-14.91-52-22.27-80.85-23.56a183.78,183.78,0,0,0-56.1,6c-14.51,3.88-28.16,9.64-40.33,18.59-15.35,11.29-25.77,26-30.55,44.54-3.31,12.83-3.64,25.84-2,38.93,2.76,22.77,13.9,40.32,33,52.87A124.54,124.54,0,0,0,240.28,313c28.65,7.55,57.37,14.82,86.07,22.16,6.7,1.72,13.14,4,18.76,8.15,8.59,6.33,13.07,14.77,12.41,25.52-.56,9-4.55,16.58-10.68,23-10.27,10.79-23.27,15.83-37.77,17.61a96.85,96.85,0,0,1-21.46,0A77.74,77.74,0,0,1,262,402.7c-10.45-4.92-18.54-12.62-25.51-21.63-4.27-5.51-8.38-11.15-12.86-16.47-8.31-9.89-18.94-13.48-31.61-10.87-11.7,2.42-20.81,11.35-22.94,22.71-1.41,7.56-.06,14.89,2.56,22,5,13.58,14,24.19,25.16,33.1C210,442.06,225,449,241.05,453.67c19,5.58,38.46,7.68,58.19,7.81,1.16-.05,2.32-.15,3.47-.15a201.58,201.58,0,0,0,34.94-3.14c16.58-3,32.43-8.08,46.86-16.95,27-16.58,41.67-40.71,43.9-72.28a95.31,95.31,0,0,0-3.89-34.14A76.48,76.48,0,0,0,402.39,299.45Z"/></svg>