<svg id="Layer_1" data-name="Layer 1" xmlns="http://www.w3.org/2000/svg" viewBox="0 0 595.28 595.28"><title>soft hr</title><path d="M572.41,267.12C569,244,564.85,220.48,556.77,198.7,517.68,93.31,420.12,23.12,309.92,19.27,196.71,15.32,95.84,77.35,47.72,180.51,38.18,201,41.58,217.88,60.6,237.09c2.1-5.75,3.8-9.83,5.11-14C96.26,124.73,184.43,56.56,287.57,51.57c125.86-6.08,236.7,87.29,252.8,212.2,1.76,13.67,2.85,23.84-18.26,22l36.47,62.79,36.7-64C576.47,287.61,574.26,279.66,572.41,267.12Z"/><path d="M534.23,360.11c-.69.52-1.75.89-2.05,1.58-1.26,3-2.36,6-3.39,9C495.33,470,426.36,528.4,323.16,542.05c-131.77,17.43-251.34-77.76-269-210.48-2.59-19.49-2.59-19.49,17.06-23.77L35.71,246,0,308.67c11.6,1.5,20.23.77,21.47,15.22C39.32,531.64,270.85,644.6,446.11,531.31c44.06-28.48,77.3-66.82,99.47-114.5C555.6,395.27,550.91,372.57,534.23,360.11Z"/><path d="M211.82,325.52c-1.7,22.19-.07,44.74,1.66,67,.68,8.82,7.92,13.47,17.52,14.75a485.87,485.87,0,0,0,132.33,0c9.7-1.35,16.33-6.05,17.47-14.8,2.37-18.13,4.42-36.53,3.94-54.75-.56-21.1-11.32-32.78-32.15-37.41-4.26-.95-11.35,1.86-14.24,5.35-11.3,13.59-21.42,28.16-32.37,42.88-7.54-18-7.11-33.93,9.28-48.83H279.57c15.62,15.4,16.24,31.16,8.72,48.9-11.05-14.92-21.46-29.3-32.31-43.34-2.17-2.82-5.93-6.13-9-6.2C232.68,298.7,212.88,311.62,211.82,325.52Z"/><path d="M296.67,284.91c33.89.23,60.28-26.32,60.12-60.48-.16-33.56-26-59-59.89-58.92-33.45.07-59.44,26.08-59.4,59.47C237.53,258.74,263.13,284.67,296.67,284.91Z"/><path d="M108.84,327.08a117.85,117.85,0,0,0,2,34.3C112,367,118,375.26,122.65,375.8c24,2.82,48.24,3.54,72.91,5,2.14-29.58-5.82-58.34,17.57-80l-1.29-3.59c-5.36,1-11.31.88-15.94,3.29-14.16,7.37-28.14,7.85-42.51,1.42C131.56,292.16,111,303.22,108.84,327.08Z"/><path d="M398.67,380.57c23.36-1.17,46.15-2.51,68.95-3.37,9.68-.37,15-6.1,15.74-14.34,1.34-14.08,2.5-28.54.73-42.46-2.23-17.51-24.88-27.66-40.47-19.72-15,7.65-29.71,7.67-44.89-.16-5-2.56-11.35-2.33-17.08-3.38C404.77,321.86,396.44,351.14,398.67,380.57Z"/><path d="M173.2,293.53c24.6-.2,42.61-18.32,42.62-42.9,0-24.94-17.69-43.31-42-43.53-25.43-.23-44.09,17.79-44.35,42.82C129.26,274.79,148.23,293.73,173.2,293.53Z"/><path d="M423,207.08c-25.4-.54-44.17,17.31-44.56,42.38C378,274.3,395.57,293,419.89,293.57c25,.62,44.51-17.81,44.86-42.46C465.09,226.65,447,207.58,423,207.08Z"/></svg>