<svg id="Layer_1" data-name="Layer 1" xmlns="http://www.w3.org/2000/svg" viewBox="0 0 595.28 595.28"><title>feedback</title><path d="M522.16,207.66c-1,2.05-1.53,3-2,4-7.44,16.68-14.71,33.45-22.38,50-3.41,7.39-7.72,14.35-11.44,21.61a20.5,20.5,0,0,0-2.57,7.44c-1,12.31-1.38,24.66-2.4,37-1.66,19.78-5.17,39-15.39,56.58-27.56,47.27-67.58,76-122.6,81.63-14.27,1.46-28.82.09-43.24.07-55.35-.09-110.69-.27-166-.16-14.42,0-26.8,5.74-37.08,15.87-9,8.9-18,17.85-27,26.76a42.47,42.47,0,0,1-3.41,2.67v-5.57q0-144.37,0-288.75c0-37.78,28.78-66.23,66.6-66.17,89,.15,178.06,0,267.09.66,10.43.07,15.91-2.44,19.08-12.43,2.78-8.74,7.31-16.93,11.65-26.7H415.8q-141.72-.29-283.45-.52a97,97,0,0,0-17.69,1.49c-52.35,9.73-86.85,51.18-86.87,104.4q-.09,183.84,0,367.68a24.71,24.71,0,0,0,.19,4.31c.71,3.91,3.46,6.13,7.12,5.68,2.41-.3,5-2.05,6.82-3.85Q83,550.81,123.9,510a16.9,16.9,0,0,1,12.43-5.38c59.67.3,119.34.43,179,1.05,18.68.19,37.11-.68,55.48-4.37,68.2-13.7,144.32-78.87,149.39-169.9,2.23-39.92,3.62-79.77,2.47-119.72C522.64,210.73,522.43,209.75,522.16,207.66Z"/><path d="M492.54,51.35q-40.95,91.5-81.82,183a39.63,39.63,0,0,0-3,12q-3.42,34.47-6.3,69c-.23,2.8,1,5.72,1.57,8.58,2.65-1.47,5.87-2.41,7.86-4.52,15.56-16.41,31-32.92,46.17-49.71A58.21,58.21,0,0,0,466.69,255q39.71-88.08,79-176.37c1-2.27,2-4.56,3-7L494.59,47.24C493.8,48.82,493.12,50.06,492.54,51.35ZM429.3,282.28c-3.2,3.24-6.29-.54-9.07-1.8-1.56-.71-3.38-3.25-3.28-4.86.69-11,1.86-22,3-34l33.31,15C445,265.55,437.34,274.12,429.3,282.28Z"/><path d="M368.54,291H140v19.85H366.7C367.34,304,367.93,297.57,368.54,291Z"/><path d="M379.58,217.73h-159v19.73H373.07C375.3,230.69,377.43,224.23,379.58,217.73Z"/><path d="M287.45,364.25H139.87v19.81H287.45Z"/><path d="M559.45,15Q544.42,8,529.21,1.43c-6-2.62-11.68-1.77-14.89,3.64-5,8.41-8.85,17.48-13.3,26.49l54.79,24.6c3.73-8.58,7.71-16.61,10.73-25C569.18,23.88,566.37,18.16,559.45,15Z"/><path d="M411.07,364.36H310.41V384H411.07Z"/><path d="M197.24,217.79H139.86v19.64h57.38Z"/></svg>