<svg id="Layer_1" data-name="Layer 1" xmlns="http://www.w3.org/2000/svg" viewBox="0 0 200 200"><defs><style>.cls-1{fill:#878787;}.cls-2{fill:none;}</style></defs><title>football</title><path class="cls-1" d="M100,174.36a87.18,87.18,0,1,1,87.18-87.18A87.28,87.28,0,0,1,100,174.36ZM100,7.94a79.24,79.24,0,1,0,79.24,79.24A79.33,79.33,0,0,0,100,7.94Z"/><path class="cls-1" d="M59.75,181.73v3H53.32v4.23h6v3h-6v7.81H49.7v-18Z"/><path class="cls-1" d="M61.17,187a8.59,8.59,0,0,1,.83-3,4.73,4.73,0,0,1,1.86-1.93,8,8,0,0,1,6.5,0A4.77,4.77,0,0,1,72.21,184a8.38,8.38,0,0,1,.83,3,37.6,37.6,0,0,1,0,7.55,8.33,8.33,0,0,1-.83,2.94,4.39,4.39,0,0,1-1.85,1.89,8.33,8.33,0,0,1-6.5,0A4.35,4.35,0,0,1,62,197.45a8.54,8.54,0,0,1-.83-2.94,37.6,37.6,0,0,1,0-7.55Zm3.53,6.85a9,9,0,0,0,.35,2.07,2.29,2.29,0,0,0,.76,1.16,2.15,2.15,0,0,0,1.3.36A2.12,2.12,0,0,0,68.4,197a2.29,2.29,0,0,0,.76-1.16,8.5,8.5,0,0,0,.35-2.07c.06-.84.09-1.87.09-3.08s0-2.24-.09-3.08a8.58,8.58,0,0,0-.35-2.06,2.28,2.28,0,0,0-.76-1.17,2.06,2.06,0,0,0-1.29-.37,2.09,2.09,0,0,0-1.3.37,2.28,2.28,0,0,0-.76,1.17,9.11,9.11,0,0,0-.35,2.06c-.06.84-.09,1.87-.09,3.08S64.64,193,64.7,193.81Z"/><path class="cls-1" d="M75.18,187a8.59,8.59,0,0,1,.83-3,4.73,4.73,0,0,1,1.86-1.93,8,8,0,0,1,6.5,0A4.77,4.77,0,0,1,86.22,184a8.38,8.38,0,0,1,.83,3,37.6,37.6,0,0,1,0,7.55,8.33,8.33,0,0,1-.83,2.94,4.39,4.39,0,0,1-1.85,1.89,8.33,8.33,0,0,1-6.5,0A4.35,4.35,0,0,1,76,197.45a8.54,8.54,0,0,1-.83-2.94,37.6,37.6,0,0,1,0-7.55Zm3.53,6.85a9,9,0,0,0,.35,2.07,2.29,2.29,0,0,0,.76,1.16,2.51,2.51,0,0,0,2.59,0,2.29,2.29,0,0,0,.76-1.16,8.5,8.5,0,0,0,.35-2.07c.06-.84.09-1.87.09-3.08s0-2.24-.09-3.08a8.58,8.58,0,0,0-.35-2.06,2.28,2.28,0,0,0-.76-1.17,2.45,2.45,0,0,0-2.59,0,2.28,2.28,0,0,0-.76,1.17,9.11,9.11,0,0,0-.35,2.06c-.06.84-.09,1.87-.09,3.08S78.65,193,78.71,193.81Z"/><path class="cls-1" d="M99.91,184.71H96v15H92.35v-15H88.42v-3H99.91Z"/><path class="cls-1" d="M107.55,181.73a8.88,8.88,0,0,1,2,.23,4.05,4.05,0,0,1,1.62.76,3.38,3.38,0,0,1,1.06,1.41,5.5,5.5,0,0,1,.38,2.16,4.53,4.53,0,0,1-.68,2.51,3.37,3.37,0,0,1-2,1.42v.05a3.59,3.59,0,0,1,2.39,1.29,4.44,4.44,0,0,1,.88,2.9,7.39,7.39,0,0,1-.27,2,4.13,4.13,0,0,1-1,1.68,4.55,4.55,0,0,1-1.74,1.14,7.07,7.07,0,0,1-2.65.43h-6.13v-18Zm-1.41,7.39a3.59,3.59,0,0,0,2.2-.55,2.18,2.18,0,0,0,.69-1.82,2.28,2.28,0,0,0-.63-1.82,3.08,3.08,0,0,0-2-.53H105.1v4.72Zm.37,7.93a3.52,3.52,0,0,0,2.12-.58,2.46,2.46,0,0,0,.8-2.14,3.5,3.5,0,0,0-.21-1.3,2,2,0,0,0-1.45-1.27,4.7,4.7,0,0,0-1.11-.13H105.1v5.42Z"/><path class="cls-1" d="M123.47,181.73l4.76,18h-3.78l-.83-3.8h-4.78l-.84,3.8h-3.78l4.77-18ZM123,193l-1.74-8.09h0L119.46,193Z"/><path class="cls-1" d="M129.49,181.73h3.63v15h6.42v3h-10Z"/><path class="cls-1" d="M141.16,181.73h3.63v15h6.42v3H141.16Z"/><path class="cls-1" d="M44.69,65.89a.94.94,0,0,1-.85-.49,1,1,0,0,1,.37-1.33,30.62,30.62,0,0,1,8.21-2.68,1,1,0,0,1,.32,1.92,28.92,28.92,0,0,0-7.58,2.46A.89.89,0,0,1,44.69,65.89Z"/><path class="cls-1" d="M88.39,50.8A1,1,0,0,1,87.86,49c.36-.24,9-5.84,26.47-8.06a1,1,0,1,1,.24,1.93c-17,2.17-25.56,7.7-25.65,7.76A1,1,0,0,1,88.39,50.8Z"/><path class="cls-1" d="M132.1,85.65l-.2,0a1,1,0,0,1-.75-1.15c3.56-17,2.94-25.49,2.93-25.57a1,1,0,0,1,1.95-.16c0,.36.65,8.85-3,26.13A1,1,0,0,1,132.1,85.65Z"/><path class="cls-1" d="M106.56,93.52a1,1,0,0,1-.64-.24C90.77,80,82.59,73.21,82.51,73.14a1,1,0,0,1,1.24-1.5c.08.07,8.28,6.84,23.45,20.18a1,1,0,0,1,.09,1.37A1,1,0,0,1,106.56,93.52Z"/><path class="cls-1" d="M58.14,107.16a1,1,0,0,1-1-.91,77.67,77.67,0,0,1,3.24-25.91,1,1,0,0,1,1.23-.63,1,1,0,0,1,.62,1.23c0,.12-4,12.54-3.15,25.18a1,1,0,0,1-.91,1Z"/><path class="cls-1" d="M77.46,126.43a1,1,0,0,1-.94-.74,1,1,0,0,1,.71-1.18c.15,0,15.4-3.93,25.76-8.8a1,1,0,0,1,1.29.46,1,1,0,0,1-.46,1.3c-10.53,5-26,8.89-26.12,8.93A1,1,0,0,1,77.46,126.43Z"/><path class="cls-1" d="M123.67,142.39a1.15,1.15,0,0,1-.35-.07,1,1,0,0,1-.56-1.26,42.27,42.27,0,0,0,2.57-14.5,1,1,0,0,1,.94-1h0a1,1,0,0,1,1,1,43.57,43.57,0,0,1-2.7,15.26A1,1,0,0,1,123.67,142.39Z"/><path class="cls-1" d="M103,147l-.18,0c-12.07-2.28-24.29-9.54-24.8-9.85a1,1,0,0,1-.34-1.33,1,1,0,0,1,1.34-.34c.12.07,12.44,7.39,24.16,9.61A1,1,0,0,1,103,147Z"/><path class="cls-1" d="M143.11,106.57c-.37,0-.59,0-.63,0a1,1,0,0,1-.89-1,1,1,0,0,1,1-.89c.05,0,5.68.36,14.33-3.65a1,1,0,0,1,.81,1.77C150.21,106.23,144.88,106.57,143.11,106.57Z"/><path class="cls-1" d="M158.67,81.63a1,1,0,0,1-.94-.72,51.21,51.21,0,0,0-12.89-22.43,1,1,0,0,1,1.33-1.43,52.57,52.57,0,0,1,13.45,23.36,1,1,0,0,1-.7,1.19A1,1,0,0,1,158.67,81.63Z"/><path class="cls-1" d="M135.07,59.05c3.48-.13,10.7-1,10.7-1,.25-3.1.51-6.7.51-6.7h0a58.46,58.46,0,0,0-30.12-20.52C114.81,37.46,113.55,42,113.55,42,126.43,48.22,135.07,59.05,135.07,59.05Z"/><path class="cls-1" d="M52.33,62.4S53.4,69.49,61.24,81a171.61,171.61,0,0,1,22.15-8.38,178.85,178.85,0,0,1,5.28-22.94S82.1,45,69.6,43.84C69.6,43.84,60.71,48.09,52.33,62.4Z"/><path class="cls-1" d="M132.23,84.06a216,216,0,0,1-26.36,7.88s-1.67,16.52-3.19,25c0,0,10.46,9.09,23.64,10.15,0,0,12-9.54,16.67-21.51C143,105.58,141.77,95.58,132.23,84.06Z"/><path class="cls-1" d="M58.14,106.19a43.15,43.15,0,0,1-10.76,4.69l-.28.76A58.6,58.6,0,0,0,71.19,137.7l1.19-.45s4.51-.36,6.52-.74a44.56,44.56,0,0,1-.61-11.23S65.26,116.49,58.14,106.19Z"/><circle class="cls-2" cx="100" cy="86.91" r="58.4"/><path class="cls-1" d="M100,146.28a59.37,59.37,0,1,1,59.37-59.37A59.44,59.44,0,0,1,100,146.28Zm0-116.8a57.43,57.43,0,1,0,57.42,57.43A57.49,57.49,0,0,0,100,29.48Z"/></svg>