<svg id="Layer_1" data-name="Layer 1" xmlns="http://www.w3.org/2000/svg" viewBox="0 0 200 200"><defs><style>.cls-1{fill:#3d3e3e;}.cls-2{fill:#65b448;}</style></defs><title>good taste</title><path class="cls-1" d="M100,173a86.5,86.5,0,1,1,86.49-86.5A86.59,86.59,0,0,1,100,173ZM100,7.87a78.62,78.62,0,1,0,78.62,78.62A78.71,78.71,0,0,0,100,7.87Z"/><path class="cls-2" d="M47.74,186.15a3.08,3.08,0,0,0-.36-1,2.5,2.5,0,0,0-.64-.73,1.51,1.51,0,0,0-.93-.28,2,2,0,0,0-1.88,1.45,14.32,14.32,0,0,0-.57,4.8c0,1.06,0,2,.1,2.9a10.5,10.5,0,0,0,.36,2.21,3.11,3.11,0,0,0,.75,1.4,1.74,1.74,0,0,0,1.26.48,1.63,1.63,0,0,0,.71-.17,2.38,2.38,0,0,0,.73-.53,2.83,2.83,0,0,0,.56-.88,3.26,3.26,0,0,0,.23-1.26v-1.83H45.68V190.1h5.83v9.62H48.86v-1.64h0a3.87,3.87,0,0,1-1.57,1.48,5,5,0,0,1-2.18.44,5.45,5.45,0,0,1-2.69-.58,3.89,3.89,0,0,1-1.62-1.77,8.81,8.81,0,0,1-.79-3,35.27,35.27,0,0,1-.2-4.09,24.16,24.16,0,0,1,.28-3.95,8.24,8.24,0,0,1,1-2.84,4.61,4.61,0,0,1,1.85-1.71,6.48,6.48,0,0,1,2.88-.57c2,0,3.38.48,4.25,1.46a6.13,6.13,0,0,1,1.3,4.19H47.86A4.59,4.59,0,0,0,47.74,186.15Z"/><path class="cls-2" d="M53.64,187.06a8.21,8.21,0,0,1,.83-2.93,4.6,4.6,0,0,1,1.84-1.92,6.56,6.56,0,0,1,3.22-.68,6.56,6.56,0,0,1,3.22.68,4.6,4.6,0,0,1,1.84,1.92,8.21,8.21,0,0,1,.83,2.93,35.93,35.93,0,0,1,.19,3.74,35.55,35.55,0,0,1-.19,3.75,8.21,8.21,0,0,1-.83,2.92,4.34,4.34,0,0,1-1.84,1.88,6.81,6.81,0,0,1-3.22.65,6.81,6.81,0,0,1-3.22-.65,4.34,4.34,0,0,1-1.84-1.88,8.21,8.21,0,0,1-.83-2.92,39,39,0,0,1,0-7.49Zm3.5,6.8a8.81,8.81,0,0,0,.35,2,2.31,2.31,0,0,0,.75,1.15,2.49,2.49,0,0,0,2.58,0,2.31,2.31,0,0,0,.75-1.15,8.81,8.81,0,0,0,.35-2q.09-1.26.09-3.06c0-1.2,0-2.22-.09-3.05a9,9,0,0,0-.35-2.05,2.35,2.35,0,0,0-.75-1.16,2.49,2.49,0,0,0-2.58,0,2.35,2.35,0,0,0-.75,1.16,9,9,0,0,0-.35,2.05c0,.83-.08,1.85-.08,3.05S57.09,193,57.14,193.86Z"/><path class="cls-2" d="M67.54,187.06a8.21,8.21,0,0,1,.83-2.93,4.58,4.58,0,0,1,1.83-1.92,8,8,0,0,1,6.45,0,4.6,4.6,0,0,1,1.84,1.92,8.21,8.21,0,0,1,.83,2.93,39,39,0,0,1,0,7.49,8.21,8.21,0,0,1-.83,2.92,4.34,4.34,0,0,1-1.84,1.88,8.33,8.33,0,0,1-6.45,0,4.32,4.32,0,0,1-1.83-1.88,8.21,8.21,0,0,1-.83-2.92,35.55,35.55,0,0,1-.19-3.75A35.93,35.93,0,0,1,67.54,187.06Zm3.5,6.8a8.81,8.81,0,0,0,.35,2,2.31,2.31,0,0,0,.75,1.15,2.49,2.49,0,0,0,2.58,0,2.31,2.31,0,0,0,.75-1.15,8.81,8.81,0,0,0,.35-2c.05-.84.08-1.86.08-3.06s0-2.22-.08-3.05a9,9,0,0,0-.35-2.05,2.35,2.35,0,0,0-.75-1.16,2.49,2.49,0,0,0-2.58,0,2.35,2.35,0,0,0-.75,1.16,9,9,0,0,0-.35,2.05c-.06.83-.09,1.85-.09,3.05S71,193,71,193.86Z"/><path class="cls-2" d="M87.7,181.88a6.45,6.45,0,0,1,3,.61,4.35,4.35,0,0,1,1.78,1.75,7.68,7.68,0,0,1,.87,2.74,25.69,25.69,0,0,1,.22,3.57,24.44,24.44,0,0,1-.29,4.09,7.88,7.88,0,0,1-1,2.86,4.33,4.33,0,0,1-1.88,1.67,6.94,6.94,0,0,1-3,.55H81.8V181.88ZM87,197.07a3.1,3.1,0,0,0,1.53-.32,2.27,2.27,0,0,0,.91-1.07,6.59,6.59,0,0,0,.45-2c.07-.82.11-1.83.11-3,0-1,0-1.91-.1-2.67a6.38,6.38,0,0,0-.41-1.92,2.48,2.48,0,0,0-.92-1.15,3.13,3.13,0,0,0-1.64-.38H85.4v12.54Z"/><path class="cls-2" d="M111.5,184.83h-3.9v14.89H104V184.83h-3.9v-3h11.4Z"/><path class="cls-2" d="M119.6,181.88l4.72,17.84h-3.75l-.82-3.77H115l-.83,3.77h-3.75l4.73-17.84ZM119.12,193l-1.72-8h-.05l-1.73,8Z"/><path class="cls-2" d="M128.47,194.68a6.51,6.51,0,0,0,.1,1.13,1.94,1.94,0,0,0,.38.86,1.77,1.77,0,0,0,.73.55,2.86,2.86,0,0,0,1.17.2,2.26,2.26,0,0,0,1.48-.53,2,2,0,0,0,.67-1.66,2.94,2.94,0,0,0-.17-1,1.94,1.94,0,0,0-.53-.79,3.85,3.85,0,0,0-1-.64,14.74,14.74,0,0,0-1.51-.58,13.28,13.28,0,0,1-2.08-.88,5.79,5.79,0,0,1-1.46-1.11,4,4,0,0,1-.86-1.48,6,6,0,0,1-.28-1.93,5,5,0,0,1,1.48-3.95,5.88,5.88,0,0,1,4.05-1.3,8.59,8.59,0,0,1,2.21.26,4.61,4.61,0,0,1,1.75.85,4,4,0,0,1,1.15,1.5,5.38,5.38,0,0,1,.41,2.19v.5h-3.45a3.61,3.61,0,0,0-.45-2,1.67,1.67,0,0,0-1.5-.68,2.46,2.46,0,0,0-1,.17,1.73,1.73,0,0,0-.64.46,1.81,1.81,0,0,0-.32.67,3.31,3.31,0,0,0-.09.77,2.63,2.63,0,0,0,.35,1.39,3.16,3.16,0,0,0,1.5,1l2.78,1.2a8.72,8.72,0,0,1,1.67.93,4.68,4.68,0,0,1,1,1.05,3.52,3.52,0,0,1,.54,1.24,6.93,6.93,0,0,1,.15,1.5,4.92,4.92,0,0,1-1.64,4.11,7.19,7.19,0,0,1-4.56,1.29c-2,0-3.49-.44-4.37-1.32a5.22,5.22,0,0,1-1.31-3.8v-.73h3.6Z"/><path class="cls-2" d="M149,184.83h-3.9v14.89h-3.6V184.83h-3.9v-3H149Z"/><path class="cls-2" d="M160.52,184.83h-6.37V189h6V192h-6v4.79h6.62v2.95H150.54V181.88h10Z"/><path class="cls-1" d="M66.55,99a29.94,29.94,0,0,0,59.79,0,33.19,33.19,0,0,0-28.06.27C86.66,104.58,66.55,99,66.55,99Z"/><path class="cls-2" d="M58.12,69.05c-2.88-8.76-8.49-9-8.49-9,7.21-.26,10.44,7.55,10.44,7.55,0-19.5-22.52-14.15-22.52-14.15,4.84,4.08,2.9,10.36,8.66,14.12C49.89,70,55.18,69.5,58.12,69.05Z"/><path class="cls-2" d="M149.43,92.57h-16v4.27A37,37,0,1,1,84.05,62C80,64.6,74.81,70.41,70.29,78.48c36.4.79,23.23-28.73,39.07-30.6-5.63-8.13-44.37-14.3-47.5,19.36a45.57,45.57,0,0,0,33.49,75.11l1.11,0a45.54,45.54,0,0,0,45.32-41.26h7.65a4.48,4.48,0,0,1,0,9h-5.9v8.54h5.9a13,13,0,0,0,0-26Z"/></svg>