<svg id="Layer_1" data-name="Layer 1" xmlns="http://www.w3.org/2000/svg" viewBox="0 0 595.28 595.28"><title>pay slip</title><path d="M526.38,204.22H507.6c-52.52,0-105-.3-157.54.23-11.59.12-15.8-2.89-15.55-15.1.75-35.79.27-71.61.27-107.41V10.27c-6.27-.3-10.49-.67-14.71-.67q-106-.06-212,0C78.86,9.62,64.7,24.14,64.7,54q0,245.63,0,491.25c0,30.28,14.24,44.37,44.88,44.38q186.92,0,373.81,0c31.11,0,44-13,44.06-44.36q.09-161.83,0-323.68C527.44,216.08,526.79,210.58,526.38,204.22Zm-386-118.41H297.5c0,11.36.65,22.56-.47,33.57-.28,2.7-6.34,6.85-9.77,6.88q-68.62.67-137.26-.11c-3.26,0-8.78-5.39-9.22-8.78C139.53,107.57,140.34,97.52,140.34,85.81Zm.43,110.05c-1.08-10.27-.41-20.73-.41-32.19H297.63c0,11.05.67,21.91-.43,32.59-.3,2.91-5.88,7.52-9.07,7.56q-69.39.72-138.78,0C146.32,203.74,141.09,198.88,140.77,195.86Zm192,255.22c-9.51,2.8-18.67,4.23-16.4,17.88.32,1.9-5,6.43-8,6.85-7.5,1-15.49,1.53-22.77-.09-3.94-.88-9.69-6.57-9.64-10,.15-9.91-4.95-12.6-13-15.35-14.48-5-27.59-12.45-36.44-27.45,9.44-6.48,17.68-13,26.76-17.91,3-1.65,9-.72,12.23,1.28,18.09,11.28,37.29,11,56.42,5.1,5.15-1.57,11.17-8.47,11.9-13.62.55-3.9-5.91-11.61-10.56-12.9-14.54-4-29.71-5.81-44.63-8.45-25.55-4.52-48.21-13.79-57.77-40.46-11.36-31.68,6.94-63.51,41.65-72.07,8.9-2.2,13.26-4.67,13.39-14.45.05-3.16,5.5-8.5,9-8.94,9.78-1.23,19.82-.43,32.94-.43-5.2,18.18,4.42,22.71,17.38,27.72,11.65,4.51,21.42,13.91,34.6,22.91-13.06,8.86-21.74,15.45-31.17,20.69-2.59,1.44-8.09-.12-11.12-2.06-17.12-11-35.78-9.13-54-5.73-5.36,1-12.88,8.48-13.17,13.36s6.47,13.22,11.61,14.62c15.93,4.34,32.61,5.89,48.93,8.88,29.29,5.36,49.32,23.13,53.28,46.87C379.2,417.94,364,441.88,332.72,451.08Z"/><path d="M388.19,162.7c43.36-.25,86.71-.1,130.07-.19,2.66,0,5.31-.86,12.34-2.08-6.45-10.41-10.36-20.11-17.1-27q-55.33-56.82-112-112.32c-5.92-5.8-14.57-8.82-23.34-13.93C376.9,13,376,15.29,376,17.56c-.1,44.78.07,89.57-.23,134.35C375.72,161.26,380.25,162.74,388.19,162.7Z"/></svg>