<svg id="Layer_1" data-name="Layer 1" xmlns="http://www.w3.org/2000/svg" viewBox="0 0 595.28 595.28"><title>payments</title><path d="M297.69,0C133.27.42,0,134,.2,298.18c.24,163.6,134.24,297.38,297.59,297.1C462.19,595,595.43,461.35,595.08,297.1,594.73,133.12,461.07-.41,297.69,0ZM283.57,431.2c-12.48-1.48-24.83-2.4-37-4.47-40.9-7-35.62-13.54-35.16-49.59.11-8.59,7.62-11.39,16.38-6.61,19.66,10.76,40.58,15.7,62.88,13.57a63.49,63.49,0,0,0,19.42-4.81c16.72-7.42,20.38-25,7-37.4-7.77-7.25-17.73-12.42-27.28-17.45-14.42-7.58-30-13.14-43.91-21.48-29.56-17.72-41.25-45.58-34.25-78.72,5.15-24.38,21.32-39.42,43.31-49.09A95.23,95.23,0,0,1,266.74,171c16.36-4.78,16.37-4.74,17.9-22h27v15.2c13.73,1.59,27.05,2.65,40.19,4.78,18.23,3,22.54,8.6,22.49,27.07,0,4.17.08,8.34-.05,12.5-.35,11.26-5.76,15.07-16.26,11-16.66-6.52-33.84-10.18-51.67-8.31-7.8.82-16,2.69-22.91,6.18-15.19,7.61-17.48,24.28-4.92,35.68,6.28,5.71,14,10.07,21.65,14,14.51,7.43,29.84,13.34,44.09,21.23,34.88,19.32,48.3,49.14,38.87,86.2-8,31.24-31.49,45.07-60.67,51.88-2.5.58-5,.95-7.53,1.52a24.14,24.14,0,0,0-3.26,1.38v17.52h-27C284.26,441.66,283.93,436.68,283.57,431.2Zm221.15-1.89c-49.46,80.11-124.79,117.19-219.43,117.5V513.57c70.85,1.15,129.71-24.64,175.19-78.68,33.89-40.27,50.35-87.35,49.53-140-.94-60.73-23.86-112.22-67.84-153.9C398.46,99.52,345.81,80.43,285.25,81.9V48.57c92.6,0,166.9,35.77,216.79,113.24C558.33,249.22,559.32,340.87,504.72,429.31Z"/></svg>