<svg id="Layer_1" data-name="Layer 1" xmlns="http://www.w3.org/2000/svg" viewBox="0 0 595.28 595.28"><title>payroll departement</title><path d="M298.58,546q-14.31-.09-28.63-.07-95.41,0-190.83,0c-12.12,0-20.51-6.49-23.44-18.3a50.18,50.18,0,0,1-1.06-11.95q-.1-161.9-.08-323.79,0-57.9,0-115.78c0-16.32,9.51-26.45,24.34-26.45l318.7,0c17,0,26.29,9.06,26.48,26.11.17,15.9.1,31.81.11,47.71,0,44.1-.08,88.21.09,132.31.06,15.48,9.34,24.9,23.65,24.9s23.64-9.65,23.67-25c.13-60,.35-120,0-180C471.39,30.66,436.93-1.58,395,.06c-28.16,1.1-56.4.24-84.6.24L77.58.32C58,.32,41.1,7.06,27.27,21,12,36.43,5.2,55.35,5.18,76.8q-.09,110.37,0,220.74h0q0,27.68,0,55.35c0,55.76-.16,111.53,0,167.3.16,42.89,32.08,75.07,73.93,75.07q73.79,0,147.58,0c24.17,0,48.34.13,72.51-.18,15.3-.2,24.18-9.59,24-24.43C323,555.32,313.83,546.14,298.58,546Z"/><path d="M450.5,306.8c-77.3-.26-140.8,62.78-140.91,139.88s62.86,140.23,139.7,140.39c77.45.15,140.81-62.71,140.93-139.82C590.33,370.33,527.39,307.06,450.5,306.8ZM448,539.88c-50.4-.47-91.43-42.67-91-93.6.43-51.78,42.19-92.65,94.26-92.24,50.41.4,91.92,42.53,91.71,93.07C542.77,498.21,499.62,540.37,448,539.88Z"/><path d="M372.7,254.75c-.16-14.36-9.88-23-26-23q-53.1,0-106.18,0-53.73,0-107.46,0c-15.3,0-24.91,9.06-24.92,23.42s9.74,23.73,24.78,23.73q106.82,0,213.63,0C362,278.86,372.85,268.76,372.7,254.75Z"/><path d="M346.84,144.58c-40.5-.16-81-.1-121.5-.11-11.24,0-22.49-.13-33.72.13-13.37.32-22.1,7.57-23.82,19.29-2.43,16.48,7.34,27.88,24.56,28,25.87.2,51.74.05,77.61.05V192q24.48,0,49,0c10,0,19.94.15,29.9-.15,11.81-.34,19.8-6.14,22.73-15.94C376.53,159.38,365.08,144.64,346.84,144.58Z"/><path d="M129.71,318.81c-5.61.05-12,3-16.58,6.45-7.43,5.66-9.1,17.06-5.33,26.26s10.89,14,20.72,14.09c26.92.17,53.84.06,80.76.06v.09c26.29,0,52.58.14,78.86-.06,13.81-.1,23.23-9.75,23.4-23.23.17-13.66-9.52-23.89-23.48-23.92C235.28,318.41,182.49,318.31,129.71,318.81Z"/><path d="M129.46,192c13.13.1,25.69-12.35,25.77-25.53.07-13.38-11.43-24.95-25-25.17-12.28-.2-24.34,12.3-24.31,25.18C106,178.93,117.91,191.9,129.46,192Z"/><path d="M479.14,404c-3.72,3.77-7.51,7.48-11.21,11.27q-19.5,20-39,40c-4.54-4.2-7.86-7.82-11.72-10.74-10.49-7.91-23.26-6.26-31.73,3.78-8.63,10.22-8.25,22.89.93,32,8,7.91,15.79,16,23.91,23.74,11.27,10.79,25,10.55,36.09-.37,5.44-5.35,10.82-10.76,16.22-16.16,17.39-17.38,34.82-34.71,52.14-52.17,6.77-6.82,9.44-15.06,6.6-24.45-2.62-8.67-9.43-13-17.76-14.49C494.33,394.7,485.94,397.05,479.14,404Z"/></svg>