<svg id="Layer_1" data-name="Layer 1" xmlns="http://www.w3.org/2000/svg" viewBox="0 0 200 200"><defs><style>.cls-1{fill:#1d1d1b;}</style></defs><title>photography</title><path class="cls-1" d="M100,174.55A87.28,87.28,0,1,0,12.73,87.27,87.37,87.37,0,0,0,100,174.55ZM100,8A79.33,79.33,0,1,1,20.67,87.27,79.41,79.41,0,0,1,100,8Z"/><path class="cls-1" d="M32.05,192.53a8.12,8.12,0,0,0,2.34-.32,4.88,4.88,0,0,0,1.81-1,4.51,4.51,0,0,0,1.16-1.69,6.39,6.39,0,0,0,.41-2.42,7.79,7.79,0,0,0-.25-2,4.63,4.63,0,0,0-.83-1.73,4.33,4.33,0,0,0-1.53-1.22,5.26,5.26,0,0,0-2.33-.47H26.48v18h3.63v-7.19Zm-1.94-8.14h1.51a2.36,2.36,0,0,1,1.94.7,3.17,3.17,0,0,1,.58,2.07,2.75,2.75,0,0,1-.66,2,2.4,2.4,0,0,1-1.76.66H30.11Z"/><polygon class="cls-1" points="39.56 181.71 39.56 199.72 43.2 199.72 43.2 191.73 47.44 191.73 47.44 199.72 51.07 199.72 51.07 181.71 47.44 181.71 47.44 188.6 43.2 188.6 43.2 181.71 39.56 181.71"/><path class="cls-1" d="M56.09,199.34a6.79,6.79,0,0,0,3.25.66,6.86,6.86,0,0,0,3.26-.66,4.39,4.39,0,0,0,1.85-1.89,8.38,8.38,0,0,0,.83-2.95,37.6,37.6,0,0,0,0-7.55,8.44,8.44,0,0,0-.83-3,4.77,4.77,0,0,0-1.85-1.93,6.61,6.61,0,0,0-3.26-.69,6.54,6.54,0,0,0-3.25.69A4.73,4.73,0,0,0,54.23,184a8.65,8.65,0,0,0-.83,3,37.6,37.6,0,0,0,0,7.55,8.6,8.6,0,0,0,.83,2.95A4.35,4.35,0,0,0,56.09,199.34Zm.84-11.7a9.21,9.21,0,0,1,.35-2.07A2.28,2.28,0,0,1,58,184.4a2.47,2.47,0,0,1,2.6,0,2.28,2.28,0,0,1,.76,1.17,9.21,9.21,0,0,1,.35,2.07c.06.84.09,1.87.09,3.08s0,2.24-.09,3.09a9,9,0,0,1-.35,2.07,2.34,2.34,0,0,1-.76,1.16,2.53,2.53,0,0,1-2.6,0,2.34,2.34,0,0,1-.76-1.16,9,9,0,0,1-.35-2.07q-.09-1.27-.09-3.09C56.84,189.51,56.87,188.48,56.93,187.64Z"/><polygon class="cls-1" points="74.22 199.72 74.22 184.69 78.16 184.69 78.16 181.71 66.66 181.71 66.66 184.69 70.59 184.69 70.59 199.72 74.22 199.72"/><path class="cls-1" d="M82.22,199.34a8.36,8.36,0,0,0,6.51,0,4.39,4.39,0,0,0,1.85-1.89,8.18,8.18,0,0,0,.83-2.95,37.6,37.6,0,0,0,0-7.55,8.23,8.23,0,0,0-.83-3,4.77,4.77,0,0,0-1.85-1.93,8,8,0,0,0-6.51,0A4.73,4.73,0,0,0,80.36,184a8.65,8.65,0,0,0-.83,3,37.6,37.6,0,0,0,0,7.55,8.6,8.6,0,0,0,.83,2.95A4.35,4.35,0,0,0,82.22,199.34Zm.84-11.7a8.62,8.62,0,0,1,.36-2.07,2.21,2.21,0,0,1,.75-1.17,2.47,2.47,0,0,1,2.6,0,2.28,2.28,0,0,1,.76,1.17,9.21,9.21,0,0,1,.35,2.07c.06.84.09,1.87.09,3.08s0,2.24-.09,3.09a9,9,0,0,1-.35,2.07,2.34,2.34,0,0,1-.76,1.16,2.53,2.53,0,0,1-2.6,0,2.26,2.26,0,0,1-.75-1.16,8.44,8.44,0,0,1-.36-2.07q-.09-1.27-.09-3.09C83,189.51,83,188.48,83.06,187.64Z"/><path class="cls-1" d="M99.67,184a1.58,1.58,0,0,1,1,.29,2.41,2.41,0,0,1,.64.74,3.31,3.31,0,0,1,.37,1,5.23,5.23,0,0,1,.11,1h3.48a6.16,6.16,0,0,0-1.31-4.22c-.88-1-2.3-1.48-4.29-1.48a6.4,6.4,0,0,0-2.9.58,4.49,4.49,0,0,0-1.86,1.73,7.71,7.71,0,0,0-1,2.86,23.43,23.43,0,0,0-.29,4,38.24,38.24,0,0,0,.2,4.12,9.17,9.17,0,0,0,.79,3,4,4,0,0,0,1.64,1.79,5.57,5.57,0,0,0,2.72.58,5.11,5.11,0,0,0,2.2-.44,3.89,3.89,0,0,0,1.58-1.5h0v1.66h2.67V190H99.55v2.68h2.39v1.84a3.13,3.13,0,0,1-.23,1.27,3.07,3.07,0,0,1-.56.9,2.56,2.56,0,0,1-.73.53,1.92,1.92,0,0,1-.72.17,1.73,1.73,0,0,1-1.28-.49,3.25,3.25,0,0,1-.75-1.41,11.34,11.34,0,0,1-.37-2.24c-.07-.87-.1-1.84-.1-2.92a14.27,14.27,0,0,1,.58-4.84A2,2,0,0,1,99.67,184Z"/><path class="cls-1" d="M118.54,189.32a5.45,5.45,0,0,0,.73-3,4.5,4.5,0,0,0-1.26-3.49,5.08,5.08,0,0,0-3.53-1.15h-6.71v18h3.63V192.1h1.94a2,2,0,0,1,1.62.61,2.88,2.88,0,0,1,.53,1.67l.1,3.45a8.39,8.39,0,0,0,.1,1,2,2,0,0,0,.35.87H120v-.15a1.39,1.39,0,0,1-.66-1c-.07-.51-.12-1.24-.15-2.2,0-.49,0-.93,0-1.32s0-.76-.08-1.1a3.71,3.71,0,0,0-.78-2.19,3.27,3.27,0,0,0-2-.89v-.05A3.4,3.4,0,0,0,118.54,189.32Zm-3.61-.36a2.93,2.93,0,0,1-2,.62H111.4v-5.19h1.72a2.21,2.21,0,0,1,2.52,2.49A2.64,2.64,0,0,1,114.93,189Z"/><path class="cls-1" d="M129.94,195.91l.83,3.81h3.79l-4.77-18H125.3l-4.77,18h3.78l.84-3.81Zm-2.42-11.07h0l1.74,8.1h-3.53Z"/><path class="cls-1" d="M141.39,192.53a8.24,8.24,0,0,0,2.35-.32,4.92,4.92,0,0,0,1.8-1,4.39,4.39,0,0,0,1.16-1.69,6.38,6.38,0,0,0,.42-2.42,8.26,8.26,0,0,0-.25-2,4.81,4.81,0,0,0-.84-1.73,4.21,4.21,0,0,0-1.52-1.22,5.27,5.27,0,0,0-2.34-.47h-6.35v18h3.63v-7.19Zm-1.94-8.14H141a2.36,2.36,0,0,1,1.94.7,3.17,3.17,0,0,1,.59,2.07,2.75,2.75,0,0,1-.67,2,2.4,2.4,0,0,1-1.76.66h-1.61Z"/><polygon class="cls-1" points="148.91 181.71 148.91 199.72 152.54 199.72 152.54 191.73 156.78 191.73 156.78 199.72 160.41 199.72 160.41 181.71 156.78 181.71 156.78 188.6 152.54 188.6 152.54 181.71 148.91 181.71"/><polygon class="cls-1" points="170.04 199.72 170.04 192.63 174.71 181.71 170.78 181.71 168.25 188.67 168.2 188.67 165.83 181.71 161.75 181.71 166.41 192.63 166.41 199.72 170.04 199.72"/><path class="cls-1" d="M99.38,129.8A42.53,42.53,0,1,0,56.85,87.27,42.57,42.57,0,0,0,99.38,129.8Zm0-83.35A40.83,40.83,0,1,1,58.55,87.27,40.87,40.87,0,0,1,99.38,46.45Z"/><path class="cls-1" d="M43.35,73.61a3.46,3.46,0,0,0,3.46-3.46V54.53a1.9,1.9,0,0,1,1.9-1.9H60.27a53,53,0,0,1,7.3-6.91H48.71a8.83,8.83,0,0,0-8.82,8.81V70.15A3.46,3.46,0,0,0,43.35,73.61Z"/><path class="cls-1" d="M139.73,52.63h11.56a1.9,1.9,0,0,1,1.9,1.9V70.15a3.46,3.46,0,0,0,6.92,0V54.53a8.83,8.83,0,0,0-8.82-8.81H132.43A53,53,0,0,1,139.73,52.63Z"/><path class="cls-1" d="M67.57,128.83a53,53,0,0,1-7.3-6.91H48.71a1.9,1.9,0,0,1-1.9-1.9V104.4a3.46,3.46,0,0,0-6.92,0V120a8.83,8.83,0,0,0,8.82,8.81Z"/><path class="cls-1" d="M156.65,100.94a3.46,3.46,0,0,0-3.46,3.46V120a1.9,1.9,0,0,1-1.9,1.9H139.73a53,53,0,0,1-7.3,6.91h18.86a8.83,8.83,0,0,0,8.82-8.81V104.4A3.46,3.46,0,0,0,156.65,100.94Z"/><path class="cls-1" d="M99.38,117.14A29.87,29.87,0,1,0,69.51,87.27,29.9,29.9,0,0,0,99.38,117.14Zm0-59.18A29.32,29.32,0,1,1,70.06,87.27,29.35,29.35,0,0,1,99.38,58Z"/><path class="cls-1" d="M99.38,110.21A22.94,22.94,0,1,0,76.44,87.27,23,23,0,0,0,99.38,110.21Zm-7.1-36.6a6.9,6.9,0,1,1-6.89,6.89A6.88,6.88,0,0,1,92.28,73.61Z"/></svg>