<svg id="Layer_1" data-name="Layer 1" xmlns="http://www.w3.org/2000/svg" viewBox="0 0 595.28 595.28"><title>user</title><path d="M453.09,404.76c-17.66-33.28-47.41-53.76-81.46-68.34-5.65-2.42-11.38-4.67-19-7.79,28-20.82,43.81-47.17,46.31-80.21,2.54-33.65-8.77-62.65-33.29-86C324.3,123,257.9,124.06,217.68,164.75c-19.89,20.12-30.37,44.46-30.91,73-.73,38.81,16.49,68.53,47.76,92.15-4.87,2-8.36,3.48-11.85,4.91-29.88,12.26-56.48,29.3-77.66,54-12.18,14.21-23.08,29.86-23.77,49-1.17,32.15-.25,64.37-.21,96.56H465.73c0-28.3,1.24-56.69-.65-84.87C464.06,434.27,460.17,418.11,453.09,404.76Zm-6,54.38c-.92,17.62-.17,35.33-.17,54.16H139.33c0-15.35,1.38-31-.28-46.38-4.07-37.75,14.39-63.7,41.72-85.91,24.65-20,53.64-30.82,83.41-40.09,4.43-1.37,8.82-2.87,16-5.22-12.8-8.28-23.4-15-33.86-21.92-36-23.86-49.93-66.36-34.65-105.39,15.06-38.45,54.68-60.94,95.83-54.39,39.83,6.34,70.87,40.94,72.45,82.95,1.17,31.2-11.9,56.46-37.43,74.76-10.83,7.76-22.09,14.94-35.49,23.94,11.9,3.67,21.63,6.85,31.47,9.65,30.4,8.65,57.8,22.54,80.25,45.24C437.55,409.54,448.57,431.52,447.13,459.14Z"/><path d="M551.48,290.36c-16.4-13.71-35.36-24.39-53.71-36.8,40.9-44.6,38.53-95.32,21.74-129C499.11,83.74,465.3,61.74,419.67,61c-40.55-.67-72.24,17.36-95.64,51.5l15.28,9.66c45.27-59.32,110.91-48,142.28-17.83,18.71,18,29.24,39.61,29.94,65.77,1.14,42.39-21.58,70.4-57.71,91.65,7.54,2.33,12.76,4,18,5.57,25.14,7.68,48,19.58,67.67,37.18,24.36,21.79,38.89,47.95,36.92,81.8-.75,12.94,0,26-.14,38.94-.24,25.07,2.62,21.35-21.07,21.57-20.73.19-41.47,0-62.77,0v17.92H595c0-27-.83-53.25.19-79.47C596.72,345.93,580.65,314.74,551.48,290.36Z"/><path d="M18.93,381.92c-1.39-27.6,8.6-50.83,28.16-68.57,15.79-14.32,34.28-26,52.79-36.82,11.66-6.8,25.54-9.8,41-15.42-28-15.83-48.19-36.05-55.2-66.41-7.12-30.82-.07-58.61,20.35-82.6C122.52,92.65,143.9,81.8,169.49,80c36.46-2.51,64.33,13.41,86.07,42.23L269.82,113c-26-49.91-98.08-66.53-150.32-37-48.12,27.23-84.77,109.43-22,178.47-14.89,9.22-30.73,17.34-44.65,28C18.52,308.61-2.76,341.63.29,387.2c1.44,21.55.21,43.26.27,64.9,0,4.17.39,8.33.6,12.74H102.53V446.45H19.14C19.14,424.18,20,403,18.93,381.92Z"/></svg>