<svg id="Layer_1" data-name="Layer 1" xmlns="http://www.w3.org/2000/svg" viewBox="0 0 740.05 578.76"><title>web mail access</title><path d="M667.72,221.47q.33,118.83.14,237.65c0,3.08-.28,6.17-.56,11.89L536.23,306.06,478.9,348.49,604.58,506.83H135.34L268.12,339.49l-57.33-42.41L74,469.3l-2.14-1.1V454.81q0-124.72-.19-249.44c0-3.64-1.71-8.44-4.33-10.74-19.79-17.31-40-34.15-60.12-51.09-1.93-1.62-4.08-3-6.53-4.76v440H738.86V152.06c-22.14,18.72-43,36.65-64.19,54.06C669.4,210.43,667.7,214.86,667.72,221.47Z"/><path d="M6.13,64.46Q157.48,179.2,308.67,294.14a117.72,117.72,0,0,0,142.47-.42C542,224.47,632.64,155,723.89,86.25c11.89-9,17.24-17.79,16-32.76-1.48-17.6-.34-35.42-.34-53.49H.14C.14,18.17.37,35.37,0,52.56-.11,58,1.87,61.23,6.13,64.46ZM631.58,72c-3.5,3-5.57,4.92-7.85,6.61Q516.35,158.19,408.92,237.74c-18.44,13.66-39.66,14-57.85.57Q242.46,158.06,134,77.59c-1.81-1.34-3.4-3-6.37-5.63Z"/></svg>