<svg id="Layer_1" data-name="Layer 1" xmlns="http://www.w3.org/2000/svg" viewBox="0 0 200 200"><defs><style>.cls-1{fill:#82368c;}</style></defs><title>wine&amp;amp;whiskey</title><path class="cls-1" d="M100,174.36A87.18,87.18,0,1,0,12.82,87.18,87.28,87.28,0,0,0,100,174.36ZM100,7.94A79.24,79.24,0,1,1,20.76,87.18,79.33,79.33,0,0,1,100,7.94Z"/><polygon class="cls-1" points="34.15 195.04 34.1 195.04 31.99 181.73 28.51 181.73 26.39 195.04 26.34 195.04 24.35 181.73 20.87 181.73 24.15 199.72 28.21 199.72 30.22 186.67 30.27 186.67 32.29 199.72 36.34 199.72 39.62 181.73 36.14 181.73 34.15 195.04"/><rect class="cls-1" x="41.26" y="181.73" width="3.63" height="17.99"/><polygon class="cls-1" points="56.2 194.05 56.15 194.05 51.76 181.73 47.58 181.73 47.58 199.72 50.91 199.72 50.91 187.13 50.96 187.13 55.39 199.72 59.52 199.72 59.52 181.73 56.2 181.73 56.2 194.05"/><polygon class="cls-1" points="65.67 191.91 71.72 191.91 71.72 188.94 65.67 188.94 65.67 184.71 72.1 184.71 72.1 181.73 62.04 181.73 62.04 199.72 72.35 199.72 72.35 196.75 65.67 196.75 65.67 191.91"/><path class="cls-1" d="M86.87,193.89a7.69,7.69,0,0,0,.52-2.81H84.26a6.06,6.06,0,0,1-.17,1.36,6.77,6.77,0,0,1-.45,1.36l-2.7-3.65a10.23,10.23,0,0,0,2.36-2.22,4.13,4.13,0,0,0,.76-2.44A3.9,3.9,0,0,0,83.8,184a3.18,3.18,0,0,0-.82-1.2,4.06,4.06,0,0,0-1.4-.81,6.25,6.25,0,0,0-2-.29,6,6,0,0,0-1.85.27,4.24,4.24,0,0,0-1.45.75,3.53,3.53,0,0,0-1,1.19,3.59,3.59,0,0,0-.34,1.57,5.71,5.71,0,0,0,.05.73,5.18,5.18,0,0,0,.18.73,4.38,4.38,0,0,0,.37.81,10.37,10.37,0,0,0,.61,1l.63.93A10.06,10.06,0,0,0,74.18,192a4.61,4.61,0,0,0-1,2.87,7,7,0,0,0,.22,1.66,4.6,4.6,0,0,0,.83,1.69A4.46,4.46,0,0,0,76,199.51a6.71,6.71,0,0,0,2.77.49,7,7,0,0,0,2.51-.43,4.39,4.39,0,0,0,1.83-1.23l1,1.38h3.86l-2.37-3.32A11.56,11.56,0,0,0,86.87,193.89Zm-8.46-9.56A1.63,1.63,0,0,1,79.5,184a1.67,1.67,0,0,1,1.15.39,1.42,1.42,0,0,1,.44,1.12,2.11,2.11,0,0,1-.26,1,3.68,3.68,0,0,1-.87,1l-.66.55-.43-.6a3.68,3.68,0,0,1-.9-2A1.32,1.32,0,0,1,78.41,184.33Zm.79,12.92a2.67,2.67,0,0,1-1.08-.21,2.35,2.35,0,0,1-.8-.56,2.3,2.3,0,0,1-.47-.76,2.37,2.37,0,0,1-.17-.83,3.12,3.12,0,0,1,.39-1.54,5.27,5.27,0,0,1,1.45-1.51l3,4.28A2.87,2.87,0,0,1,79.2,197.25Z"/><polygon class="cls-1" points="101.32 195.04 101.27 195.04 99.16 181.73 95.68 181.73 93.56 195.04 93.51 195.04 91.52 181.73 88.04 181.73 91.32 199.72 95.38 199.72 97.39 186.67 97.44 186.67 99.46 199.72 103.52 199.72 106.79 181.73 103.31 181.73 101.32 195.04"/><polygon class="cls-1" points="116.11 188.61 111.88 188.61 111.88 181.73 108.25 181.73 108.25 199.72 111.88 199.72 111.88 191.74 116.11 191.74 116.11 199.72 119.74 199.72 119.74 181.73 116.11 181.73 116.11 188.61"/><rect class="cls-1" x="122.44" y="181.73" width="3.63" height="17.99"/><path class="cls-1" d="M139.33,191.8a4.72,4.72,0,0,0-1-1.06,8.7,8.7,0,0,0-1.69-.94l-2.8-1.21a3.14,3.14,0,0,1-1.51-1.05,2.55,2.55,0,0,1-.35-1.4,3.33,3.33,0,0,1,.08-.78,1.68,1.68,0,0,1,.33-.67,1.62,1.62,0,0,1,.64-.46,2.5,2.5,0,0,1,1-.18,1.66,1.66,0,0,1,1.51.69,3.58,3.58,0,0,1,.46,2h3.47v-.5A5.32,5.32,0,0,0,139,184a4.16,4.16,0,0,0-1.16-1.51,4.82,4.82,0,0,0-1.76-.86,9.28,9.28,0,0,0-2.23-.26,6,6,0,0,0-4.09,1.31,5,5,0,0,0-1.48,4,6.38,6.38,0,0,0,.27,2,4.12,4.12,0,0,0,.87,1.49,5.71,5.71,0,0,0,1.48,1.12,11.84,11.84,0,0,0,2.09.88,12.69,12.69,0,0,1,1.52.6,3.67,3.67,0,0,1,1,.64,2.07,2.07,0,0,1,.54.79,3,3,0,0,1,.16,1.05,2,2,0,0,1-.66,1.67,2.34,2.34,0,0,1-1.5.54,2.86,2.86,0,0,1-1.17-.2,1.86,1.86,0,0,1-.75-.55,2.16,2.16,0,0,1-.38-.87,6.66,6.66,0,0,1-.1-1.15v-.53h-3.63v.73a5.21,5.21,0,0,0,1.33,3.83c.88.9,2.35,1.34,4.4,1.34a7.22,7.22,0,0,0,4.59-1.3,4.93,4.93,0,0,0,1.65-4.14,7,7,0,0,0-.15-1.51A3.49,3.49,0,0,0,139.33,191.8Z"/><polygon class="cls-1" points="154.03 181.73 150.1 181.73 145.52 188.94 145.47 188.94 145.47 181.73 141.84 181.73 141.84 199.72 145.47 199.72 145.47 194.38 146.8 192.34 150.5 199.72 154.59 199.72 149.14 189.44 154.03 181.73"/><polygon class="cls-1" points="159 191.91 165.04 191.91 165.04 188.94 159 188.94 159 184.71 165.42 184.71 165.42 181.73 155.37 181.73 155.37 199.72 165.67 199.72 165.67 196.75 159 196.75 159 191.91"/><polygon class="cls-1" points="172.8 188.69 172.75 188.69 170.38 181.73 166.3 181.73 170.96 192.64 170.96 199.72 174.59 199.72 174.59 192.64 179.25 181.73 175.32 181.73 172.8 188.69"/><path class="cls-1" d="M93.85,98.78c3.8,2.58,3.67,17.31,3.67,19.75,0,3.84,0,21.17-.51,30.78-.23,4.33-16.3,3.4-19.34,4.61s-2.89,2.13-1.37,2.13h47.4c1.52,0,1.82-1.14-1.37-2.13s-15.72.91-18.53-4.3c-1.6-3-1.44-32.89-1.29-36.94.15-4.33-.31-11.85,3.79-14.74,21.78-10.63,23.93-19.22,25.3-30.76s-9.42-43-9.42-43H77.82S67,55.63,68.4,67.18,72.07,88.14,93.85,98.78Z"/></svg>