<svg id="Layer_1" data-name="Layer 1" xmlns="http://www.w3.org/2000/svg" viewBox="0 0 200 200"><defs><style>.cls-1{fill:#95c11f;}</style></defs><title>yoga</title><polygon class="cls-1" points="79.15 188.76 79.11 188.76 76.75 181.86 72.7 181.86 77.33 192.69 77.33 199.72 80.93 199.72 80.93 192.69 85.56 181.86 81.66 181.86 79.15 188.76"/><path class="cls-1" d="M97.66,184.11a4.6,4.6,0,0,0-1.84-1.92,8,8,0,0,0-6.46,0,4.58,4.58,0,0,0-1.83,1.92,8.12,8.12,0,0,0-.83,2.94,37,37,0,0,0,0,7.49,8,8,0,0,0,.83,2.93,4.32,4.32,0,0,0,1.83,1.88,8.35,8.35,0,0,0,6.46,0,4.34,4.34,0,0,0,1.84-1.88,8.21,8.21,0,0,0,.83-2.93,39,39,0,0,0,0-7.49A8.33,8.33,0,0,0,97.66,184.11ZM95,193.86a8.4,8.4,0,0,1-.35,2,2.23,2.23,0,0,1-.75,1.15,2.1,2.1,0,0,1-1.29.36,2.14,2.14,0,0,1-1.29-.36,2.36,2.36,0,0,1-.75-1.15,8.91,8.91,0,0,1-.35-2c-.06-.85-.08-1.87-.08-3.07s0-2.22.08-3a8.91,8.91,0,0,1,.35-2.05,2.33,2.33,0,0,1,.75-1.17,2.14,2.14,0,0,1,1.29-.36,2.1,2.1,0,0,1,1.29.36,2.21,2.21,0,0,1,.75,1.17,8.4,8.4,0,0,1,.35,2.05c.06.83.09,1.85.09,3S95,193,95,193.86Z"/><path class="cls-1" d="M106.56,192.74h2.37v1.83a3.26,3.26,0,0,1-.22,1.26,2.89,2.89,0,0,1-.56.89,2.38,2.38,0,0,1-.73.53,1.87,1.87,0,0,1-.71.17,1.71,1.71,0,0,1-1.27-.49,3.25,3.25,0,0,1-.75-1.4,11.07,11.07,0,0,1-.36-2.21c-.07-.87-.1-1.84-.1-2.9a14.42,14.42,0,0,1,.57-4.81,2,2,0,0,1,1.88-1.45,1.55,1.55,0,0,1,.94.29,2.34,2.34,0,0,1,.64.72,3.41,3.41,0,0,1,.36,1,4.55,4.55,0,0,1,.11,1h3.46a6.1,6.1,0,0,0-1.31-4.19c-.86-1-2.28-1.46-4.25-1.46a6.48,6.48,0,0,0-2.88.57,4.56,4.56,0,0,0-1.85,1.72,7.78,7.78,0,0,0-1,2.84,24.16,24.16,0,0,0-.28,4,35.15,35.15,0,0,0,.2,4.09,9,9,0,0,0,.78,3,4,4,0,0,0,1.63,1.77,5.45,5.45,0,0,0,2.69.58,5.06,5.06,0,0,0,2.19-.44,3.76,3.76,0,0,0,1.56-1.49h0v1.65h2.66v-9.63h-5.83Z"/><path class="cls-1" d="M118.19,181.86l-4.73,17.86h3.76L118,196h4.76l.82,3.77h3.76l-4.73-17.86Zm.48,11.13,1.72-8h0l1.73,8Z"/><path class="cls-1" d="M100,0A86.54,86.54,0,0,0,49.33,156.73l.37.27A86.57,86.57,0,1,0,100,0ZM79.21,61.58c.4-2.92,4.82-6.83,7.23-10.4s9.5-13,11.31-14.07,3.86-2.66,3.86-3.92c0,3.47,1.21,2.66,3,4.42A71.72,71.72,0,0,1,115,52.33c3.92,7.29,7.59,7.19,6.58,11.41s-1.76,10.8-2.71,14.77c-.68,2.8-6.57,11.81-7.59,12-3.52.66-5.27-2.65-5.58-5.47s2.16-7,2.16-7,1-.05,1.71-2,1.06-4.32.15-4.32c.86-6.79-1.25-14.27-11.2-14.27S89.71,70.22,89.35,71A5.11,5.11,0,0,0,89,75c.53,2.2,1,2.71,1.92,3s1.91,2.16,2.41,5.88-1,4.69-1.91,5.57-3,1.64-4.07.61c-.4-3.32-7.68-9.8-7.28-13.67C80.65,71.11,78.8,64.49,79.21,61.58ZM154,143.78c-1.57-3.82-3.91-5.24-9.48-3.88-6.61,1.61-23.69,4.19-26.18,1.7s-2.24-6.46-3.95-10.13c-1.11-2.41,2.84-7.81,3.78-13s2.06-13.14,3.52-16.23,8.5-15.27,8.93-26.86,1.8-15-.95-18.63-19.91-20.08-21.54-24.46S103.73,21,103.73,18.51s-.77-5.26-1.25-5.33a.9.9,0,0,0-.89.57c-.57-.45-.9-.58-1.21-.39-.58.36-.85,2.92-.85,4.12s-3.31,12.75-4.55,14-2.84,2.15-4.21,4.89S80,46.49,76.43,50s-6,6.35-6.43,7.55.43,14.6,0,18.55,2.83,13.13,4.29,18.45,5.49,8.24,5.49,12.62,2.49,17.94,3.52,21.2a10.48,10.48,0,0,1-.34,8.15c-1.12,2.15-.77,7.47-2.66,7.47s-18.37-4.46-27.55-3.09c-3.2.48-5.19,1.69-6.39,3.2A78.71,78.71,0,1,1,154,143.78Z"/></svg>